<svg xmlns="http://www.w3.org/2000/svg" width="52" height="48" viewBox="0 0 52 48">
  <path id="iconfinder_paw_single_1608784" d="M88.375,138.75a10.52,10.52,0,0,1-.594,3.547,6.9,6.9,0,0,1-1.969,2.891,4.78,4.78,0,0,1-3.281,1.219,6.2,6.2,0,0,1-4.313-1.8,11.181,11.181,0,0,1-2.875-4.234,13.112,13.112,0,0,1-.938-4.719A10.52,10.52,0,0,1,75,132.109a6.9,6.9,0,0,1,1.969-2.891A4.78,4.78,0,0,1,80.25,128a6.178,6.178,0,0,1,4.328,1.8,11.288,11.288,0,0,1,2.859,4.219A13.064,13.064,0,0,1,88.375,138.75ZM77.687,153.844a7.294,7.294,0,0,1-1.312,4.344,4.3,4.3,0,0,1-3.719,1.844,6.714,6.714,0,0,1-4.422-1.734A12.137,12.137,0,0,1,64,149.375a7.365,7.365,0,0,1,1.313-4.359,4.284,4.284,0,0,1,3.719-1.859,6.714,6.714,0,0,1,4.422,1.734,12.2,12.2,0,0,1,4.234,8.953ZM90,153q3.687,0,7.969,3.047a27.814,27.814,0,0,1,7.156,7.406Q108,167.813,108,171.406a4.862,4.862,0,0,1-.531,2.391,3.252,3.252,0,0,1-1.516,1.406,7.914,7.914,0,0,1-2.016.625,14.582,14.582,0,0,1-2.375.172,17.982,17.982,0,0,1-5.859-1.406,17.868,17.868,0,0,0-5.7-1.406,20.014,20.014,0,0,0-6.016,1.391,20.231,20.231,0,0,1-6.266,1.391q-5.719,0-5.719-4.562a12.98,12.98,0,0,1,1.75-5.984,26.788,26.788,0,0,1,4.359-6.016,25.573,25.573,0,0,1,5.859-4.563A12.36,12.36,0,0,1,90,153Zm7.469-6.594a4.78,4.78,0,0,1-3.281-1.219,6.9,6.9,0,0,1-1.969-2.891,10.52,10.52,0,0,1-.594-3.547,13.064,13.064,0,0,1,.938-4.734,11.288,11.288,0,0,1,2.859-4.219A6.178,6.178,0,0,1,99.75,128a4.78,4.78,0,0,1,3.281,1.219A6.9,6.9,0,0,1,105,132.109a10.52,10.52,0,0,1,.594,3.547,13.111,13.111,0,0,1-.938,4.719,11.181,11.181,0,0,1-2.875,4.234A6.2,6.2,0,0,1,97.469,146.406Zm13.5-3.25a4.284,4.284,0,0,1,3.719,1.859A7.365,7.365,0,0,1,116,149.375a12.137,12.137,0,0,1-4.234,8.922,6.714,6.714,0,0,1-4.422,1.734,4.3,4.3,0,0,1-3.719-1.844,7.3,7.3,0,0,1-1.312-4.344,12.2,12.2,0,0,1,4.234-8.953A6.713,6.713,0,0,1,110.969,143.156Z" transform="translate(-64 -128)" fill="#262626"/>
</svg>
