<svg xmlns="http://www.w3.org/2000/svg" width="51.429" height="48" viewBox="0 0 51.429 48">
  <path id="iconfinder_institution_1608744" d="M-102.286,0-128,10.286v3.429h3.429a1.591,1.591,0,0,0,.549,1.205,1.847,1.847,0,0,0,1.3.509h40.875a1.847,1.847,0,0,0,1.3-.509A1.591,1.591,0,0,0-80,13.714h3.429V10.286Zm18.857,17.143h-6.857V37.714h-3.429V17.143h-6.857V37.714H-104V17.143h-6.857V37.714h-3.429V17.143h-6.857V37.714h-1.58a1.847,1.847,0,0,0-1.3.509,1.591,1.591,0,0,0-.549,1.205v1.714H-80V39.429a1.591,1.591,0,0,0-.549-1.205,1.847,1.847,0,0,0-1.3-.509h-1.58Zm-42.723,25.714a1.847,1.847,0,0,0-1.3.509A1.591,1.591,0,0,0-128,44.571V48h51.429V44.571a1.591,1.591,0,0,0-.549-1.205,1.847,1.847,0,0,0-1.3-.509Z" transform="translate(128)" fill="#006766"/>
</svg>
