<?xml version="1.0" encoding="UTF-8" standalone="no"?>
<!-- Created with Inkscape (http://www.inkscape.org/) -->

<svg
   xmlns:dc="http://purl.org/dc/elements/1.1/"
   xmlns:cc="http://creativecommons.org/ns#"
   xmlns:rdf="http://www.w3.org/1999/02/22-rdf-syntax-ns#"
   xmlns:svg="http://www.w3.org/2000/svg"
   xmlns="http://www.w3.org/2000/svg"
   xmlns:sodipodi="http://sodipodi.sourceforge.net/DTD/sodipodi-0.dtd"
   xmlns:inkscape="http://www.inkscape.org/namespaces/inkscape"
   width="210mm"
   height="297mm"
   viewBox="0 0 210 297"
   version="1.1"
   id="svg4534"
   inkscape:version="0.92.0 r15299"
   sodipodi:docname="logo_happier_heart.svg">
  <defs
     id="defs4528" />
  <sodipodi:namedview
     id="base"
     pagecolor="#ffffff"
     bordercolor="#666666"
     borderopacity="1.0"
     inkscape:pageopacity="0.0"
     inkscape:pageshadow="2"
     inkscape:zoom="0.35"
     inkscape:cx="-310"
     inkscape:cy="560"
     inkscape:document-units="mm"
     inkscape:current-layer="layer1"
     showgrid="false"
     inkscape:window-width="1536"
     inkscape:window-height="801"
     inkscape:window-x="-8"
     inkscape:window-y="-8"
     inkscape:window-maximized="1" />
  <metadata
     id="metadata4531">
    <rdf:RDF>
      <cc:Work
         rdf:about="">
        <dc:format>image/svg+xml</dc:format>
        <dc:type
           rdf:resource="http://purl.org/dc/dcmitype/StillImage" />
        <dc:title></dc:title>
      </cc:Work>
    </rdf:RDF>
  </metadata>
  <g
     inkscape:label="Layer 1"
     inkscape:groupmode="layer"
     id="layer1">
    <path
       inkscape:connector-curvature="0"
       id="path4629"
       d="m 80.77137,107.51504 c -8.523651,0 -17.047167,3.5095 -22.562448,10.02758 -6.016702,6.01669 -9.025142,14.54028 -8.52376,23.06393 1.002777,15.04172 8.523625,22.56282 15.543091,29.0809 8.02227,8.02225 15.543294,14.54011 13.036358,33.59298 0,3.00833 1.504173,5.01405 4.011135,5.01405 1.002777,0 1.504037,-8e-5 3.008209,-0.50146 52.144675,-16.0445 79.721355,-37.6042 79.721355,-61.67095 v -0.50147 c 0.50138,-9.52641 -2.50705,-17.54875 -8.52376,-24.06684 -5.51528,-6.01668 -13.53727,-9.52618 -21.55952,-10.02758 h -1.00293 c -10.02779,0 -19.05307,5.01355 -25.06977,13.03581 -5.51528,-10.52922 -16.0445,-17.04695 -27.576496,-17.04695 z m 17.31327,26.32664 c 1.523623,0 2.8943,0.56892 4.11123,1.70668 1.21688,1.13777 2.12191,2.47387 2.7155,4.00738 0.59362,1.53351 0.89049,3.0322 0.89049,4.49646 0,1.18724 -0.18794,2.31009 -0.56388,3.36871 -0.37595,1.05862 -0.99909,1.97396 -1.86972,2.74566 -0.87062,0.7717 -1.90988,1.15733 -3.11689,1.15733 -1.503848,0 -2.868814,-0.56891 -4.095635,-1.70668 -1.226793,-1.13777 -2.136979,-2.47849 -2.730585,-4.0219 -0.593606,-1.5434 -0.890462,-3.03692 -0.890462,-4.4814 0,-1.18723 0.187902,-2.31009 0.563857,-3.36871 0.375982,-1.05862 0.999091,-1.97395 1.869748,-2.74565 0.870617,-0.77171 1.909317,-1.15788 3.116347,-1.15788 z m 18.5212,0 c 1.20703,0 2.24573,0.38617 3.11635,1.15788 0.87065,0.7717 1.49376,1.68703 1.86971,2.74565 0.37597,1.05862 0.56442,2.18148 0.56442,3.36871 0,1.44448 -0.29685,2.938 -0.89048,4.4814 -0.59359,1.54341 -1.50376,2.88413 -2.73058,4.0219 -1.2268,1.13777 -2.59232,1.70668 -4.09615,1.70668 -1.20702,0 -2.24572,-0.38563 -3.11638,-1.15733 -0.87062,-0.7717 -1.49428,-1.68704 -1.87023,-2.74566 -0.37595,-1.05862 -0.56389,-2.18147 -0.56389,-3.36871 0,-1.46426 0.29686,-2.96295 0.89049,-4.49646 0.59359,-1.53351 1.49913,-2.86961 2.71607,-4.00738 1.21688,-1.13776 2.58704,-1.70668 4.11067,-1.70668 z m -29.176676,14.39545 c 1.503832,0 2.903933,0.5493 4.19999,1.6475 1.296056,1.09819 2.290359,2.42394 2.982935,3.97724 0.692549,1.5533 1.038973,3.0618 1.038973,4.52605 0,1.58298 -0.415606,2.9583 -1.246681,4.12574 -0.831061,1.16746 -2.008097,1.75135 -3.531734,1.75135 -1.503819,0 -2.903906,-0.54931 -4.19999,-1.6475 -1.29607,-1.0982 -2.290387,-2.41877 -2.982922,-3.96218 -0.692562,-1.5434 -1.038972,-3.04727 -1.038972,-4.51153 0,-1.58297 0.415578,-2.96346 1.246639,-4.1408 0.831088,-1.17734 2.008125,-1.76587 3.531762,-1.76587 z m 39.832146,0 c 1.52364,0 2.70068,0.58853 3.53176,1.76587 0.83105,1.17734 1.24664,2.55783 1.24664,4.1408 0,1.46426 -0.34641,2.96813 -1.03897,4.51153 -0.69253,1.54341 -1.68688,2.86398 -2.98295,3.96218 -1.29605,1.09819 -2.69561,1.6475 -4.19943,1.6475 -1.52363,0 -2.70123,-0.58389 -3.53226,-1.75135 -0.83108,-1.16744 -1.24669,-2.54276 -1.24669,-4.12574 0,-1.46425 0.34643,-2.97275 1.03898,-4.52605 0.69257,-1.5533 1.68686,-2.87905 2.98293,-3.97724 1.29606,-1.0982 2.69616,-1.6475 4.19999,-1.6475 z m -19.9158,9.34964 c 2.3349,0 4.85732,0.96436 7.56817,2.89361 2.71083,1.92926 4.97671,4.27411 6.79715,7.03443 1.82041,2.76033 2.73058,5.27811 2.73058,7.55364 0,0.91022 -0.16831,1.66705 -0.50468,2.27056 -0.33637,0.60351 -0.81598,1.04906 -1.43931,1.33597 -0.62328,0.28692 -1.26136,0.48465 -1.91433,0.59347 -0.65298,0.10884 -1.40518,0.16356 -2.25606,0.16356 -1.34554,0 -3.20042,-0.44554 -5.56501,-1.33596 -2.36456,-0.89043 -4.16991,-1.33543 -5.41651,-1.33543 -1.30596,0 -3.21044,0.44037 -5.71353,1.3209 -2.50309,0.88053 -4.48707,1.32036 -5.95132,1.32036 -3.621061,0 -5.431598,-1.44448 -5.431598,-4.33343 0,-1.7017 0.553955,-3.59583 1.662027,-5.68339 1.108086,-2.08755 2.488559,-3.99257 4.140806,-5.71406 1.652233,-1.72148 3.507155,-3.16598 5.565025,-4.33343 2.05788,-1.16744 3.96751,-1.7508 5.72859,-1.7508 z"
       style="fill:#e91e63;fill-opacity:1;stroke-width:5.01390791" />
  </g>
</svg>
