<?xml version="1.0" encoding="UTF-8" standalone="no"?>
<svg
   xmlns:dc="http://purl.org/dc/elements/1.1/"
   xmlns:cc="http://creativecommons.org/ns#"
   xmlns:rdf="http://www.w3.org/1999/02/22-rdf-syntax-ns#"
   xmlns:svg="http://www.w3.org/2000/svg"
   xmlns="http://www.w3.org/2000/svg"
   xmlns:sodipodi="http://sodipodi.sourceforge.net/DTD/sodipodi-0.dtd"
   xmlns:inkscape="http://www.inkscape.org/namespaces/inkscape"
   height="77.246292"
   id="Layer_1"
   version="1.1"
   viewBox="0 0 271.45608 77.246291"
   width="271.45609"
   xml:space="preserve"
   sodipodi:docname="logo_happier_default.svg"
   inkscape:version="0.92.0 r15299"><metadata
     id="metadata11"><rdf:RDF><cc:Work
         rdf:about=""><dc:format>image/svg+xml</dc:format><dc:type
           rdf:resource="http://purl.org/dc/dcmitype/StillImage" /><dc:title></dc:title></cc:Work></rdf:RDF></metadata><defs
     id="defs9" /><sodipodi:namedview
     pagecolor="#ffffff"
     bordercolor="#666666"
     borderopacity="1"
     objecttolerance="10"
     gridtolerance="10"
     guidetolerance="10"
     inkscape:pageopacity="0"
     inkscape:pageshadow="2"
     inkscape:window-width="1536"
     inkscape:window-height="801"
     id="namedview7"
     showgrid="false"
     inkscape:zoom="1.3037281"
     inkscape:cx="-80.734184"
     inkscape:cy="-19.603473"
     inkscape:window-x="-8"
     inkscape:window-y="-8"
     inkscape:window-maximized="1"
     inkscape:current-layer="g4519"
     showguides="true"
     inkscape:guide-bbox="true"
     width="300px"
     fit-margin-top="0"
     fit-margin-left="0"
     fit-margin-right="0"
     fit-margin-bottom="0"><sodipodi:guide
       position="-299.80483,-142.11534"
       orientation="1,0"
       id="guide4530"
       inkscape:locked="false" /><sodipodi:guide
       position="-1361.3758,-580.85711"
       orientation="1,0"
       id="guide4597"
       inkscape:locked="false" /></sodipodi:namedview><flowRoot
     xml:space="preserve"
     id="flowRoot4484"
     style="font-style:normal;font-weight:normal;font-size:13.33333302px;line-height:25px;font-family:sans-serif;letter-spacing:0px;word-spacing:0px;fill:#000000;fill-opacity:1;stroke:none"
     transform="translate(-134.12612,-151.50466)"><flowRegion
       id="flowRegion4486"><rect
         id="rect4488"
         width="967.5932"
         height="286.37289"
         x="-184.40678"
         y="850.44067" /></flowRegion><flowPara
       id="flowPara4490" /></flowRoot><g
     id="g4519"
     transform="matrix(1.3585745,0,0,1.3585745,-230.88894,-219.67965)"><g
       id="g4549"
       transform="matrix(0.51600939,0,0,0.51600939,130.60688,92.020074)"><path
         style="fill:#e91e63;fill-opacity:1;stroke-width:5.48202467"
         d="m 110.2913,135.03352 c -9.31945,0 -18.63875,3.83717 -24.668973,10.9638 -6.578434,6.57843 -9.867746,15.89781 -9.319556,25.21725 1.096402,16.44608 9.319429,24.66937 16.994265,31.796 8.771234,8.77124 16.994474,15.89763 14.253464,36.72935 0,3.2892 1.64461,5.48218 4.38563,5.48218 1.0964,0 1.64446,-9e-5 3.28908,-0.54828 57.01306,-17.54247 87.16442,-41.11506 87.16442,-67.42878 v -0.54828 c 0.54819,-10.41584 -2.74112,-19.18717 -9.31955,-26.31381 -6.03023,-6.57843 -14.80119,-10.41559 -23.57243,-10.96379 h -1.09655 c -10.96404,0 -20.83193,5.48163 -27.41037,14.25287 -6.03022,-11.51226 -17.5425,-18.63851 -30.15115,-18.63851 z m 18.9297,28.78459 c 1.66587,0 3.16453,0.62204 4.49506,1.86603 1.33052,1.24399 2.32001,2.70483 2.96905,4.38152 0.64903,1.67668 0.97361,3.31529 0.97361,4.91626 0,1.29808 -0.20547,2.52578 -0.61652,3.68323 -0.41105,1.15746 -1.09236,2.15825 -2.04427,3.002 -0.95193,0.84375 -2.0882,1.26539 -3.40791,1.26539 -1.64425,0 -3.13665,-0.62203 -4.47801,-1.86603 -1.34134,-1.24399 -2.33649,-2.70989 -2.98553,-4.3974 -0.64903,-1.6875 -0.97359,-3.32046 -0.97359,-4.89979 0,-1.29808 0.20545,-2.52577 0.6165,-3.68323 0.41107,-1.15745 1.09236,-2.15824 2.04429,-3.00199 0.95193,-0.84376 2.0876,-1.26599 3.40732,-1.26599 z m 20.25041,0 c 1.31971,0 2.45538,0.42223 3.40731,1.26599 0.95193,0.84375 1.63322,1.84454 2.04427,3.00199 0.41105,1.15746 0.6171,2.38515 0.6171,3.68323 0,1.57933 -0.32456,3.21229 -0.97359,4.89979 -0.64904,1.68751 -1.64417,3.15341 -2.98553,4.3974 -1.34134,1.244 -2.83435,1.86603 -4.47858,1.86603 -1.31972,0 -2.45539,-0.42164 -3.40732,-1.26539 -0.95193,-0.84375 -1.63381,-1.84454 -2.04486,-3.002 -0.41106,-1.15745 -0.61653,-2.38515 -0.61653,-3.68323 0,-1.60097 0.32456,-3.23958 0.97362,-4.91626 0.64903,-1.67669 1.6391,-3.13753 2.96964,-4.38152 1.33051,-1.24399 2.82859,-1.86603 4.49447,-1.86603 z m -31.90072,15.73946 c 1.64423,0 3.17505,0.60059 4.5921,1.80132 1.41707,1.20073 2.50423,2.65025 3.26144,4.34857 0.75722,1.69833 1.13597,3.34766 1.13597,4.94862 0,1.73078 -0.45438,3.23449 -1.36304,4.51094 -0.90866,1.27645 -2.19561,1.91485 -3.86149,1.91485 -1.64423,0 -3.17503,-0.60059 -4.59212,-1.80131 -1.41707,-1.20073 -2.50421,-2.6446 -3.26142,-4.3321 -0.75721,-1.68751 -1.13597,-3.33177 -1.13597,-4.93274 0,-1.73077 0.45438,-3.24015 1.36304,-4.52741 0.90867,-1.28727 2.19562,-1.93074 3.86149,-1.93074 z m 43.55102,0 c 1.66588,0 2.95283,0.64347 3.86149,1.93074 0.90864,1.28726 1.36304,2.79664 1.36304,4.52741 0,1.60097 -0.37875,3.24523 -1.13597,4.93274 -0.75721,1.6875 -1.84436,3.13137 -3.26143,4.3321 -1.41707,1.20072 -2.9473,1.80131 -4.59153,1.80131 -1.66588,0 -2.95342,-0.6384 -3.86206,-1.91485 -0.90866,-1.27645 -1.36305,-2.78016 -1.36305,-4.51094 0,-1.60096 0.37876,-3.25029 1.13597,-4.94862 0.75722,-1.69832 1.84435,-3.14784 3.26142,-4.34857 1.41707,-1.20073 2.94789,-1.80132 4.59212,-1.80132 z m -21.77521,10.22256 c 2.55289,0 5.31081,1.0544 8.27476,3.16378 2.96394,2.10938 5.44135,4.67314 7.43175,7.69118 1.99039,3.01804 2.98552,5.7709 2.98552,8.25888 0,0.99519 -0.18402,1.82268 -0.5518,2.48255 -0.36779,0.65985 -0.89216,1.14699 -1.57367,1.4607 -0.68148,0.3137 -1.37914,0.52989 -2.09308,0.64887 -0.71395,0.119 -1.53637,0.17883 -2.46668,0.17883 -1.47116,0 -3.49923,-0.48713 -6.08459,-1.46069 -2.58534,-0.97356 -4.55923,-1.46012 -5.92221,-1.46012 -1.42789,0 -3.51018,0.48149 -6.24696,1.44423 -2.73679,0.96275 -4.90601,1.44364 -6.50698,1.44364 -3.95914,0 -5.93869,-1.57935 -5.93869,-4.73801 0,-1.86058 0.60566,-3.93155 1.8172,-6.21401 1.21153,-2.28246 2.7209,-4.36533 4.5274,-6.24755 1.8065,-1.88221 3.83459,-3.46157 6.08459,-4.73801 2.25002,-1.27645 4.33794,-1.91427 6.26344,-1.91427 z"
         id="path4502"
         inkscape:connector-curvature="0" /><g
         id="flowRoot4512"
         style="font-style:normal;font-weight:normal;font-size:13.33333302px;line-height:25px;font-family:sans-serif;letter-spacing:0px;word-spacing:0px;fill:#e91e63;fill-opacity:1;stroke:none"
         transform="matrix(0.21261701,0,0,0.21261701,247.34406,-33.259577)"
         aria-label="happier"><path
           id="path4525"
           style="font-style:normal;font-variant:normal;font-weight:800;font-stretch:normal;font-size:293.33334351px;font-family:Montserrat;-inkscape-font-specification:'Montserrat Ultra-Bold';fill:#e91e63;fill-opacity:1"
           d="m -62.966246,978.49623 c -18.773334,0 -35.493334,5.86667 -47.813334,17.30667 v -73.33334 h -55.73334 v 217.65334 h 55.73334 v -76.8533 c 0,-26.4 13.786666,-37.5467 31.68,-37.5467 16.133334,0 26.106668,9.68 26.106668,32.56 v 81.84 H 2.7404232 v -90.9333 c 0,-49.28003 -28.4533342,-70.69337 -65.7066692,-70.69337 z"
           inkscape:connector-curvature="0" /><path
           id="path4527"
           style="font-style:normal;font-variant:normal;font-weight:800;font-stretch:normal;font-size:293.33334351px;font-family:Montserrat;-inkscape-font-specification:'Montserrat Ultra-Bold';fill:#e91e63;fill-opacity:1"
           d="m 105.20543,978.49623 c -24.933334,0 -51.920002,6.45334 -70.106669,18.48 l 18.773334,37.83997 c 10.853333,-8.5066 27.866667,-13.7866 43.120001,-13.7866 22.000004,0 32.853334,9.0933 33.733334,25.2266 h -31.68 c -49.280002,0 -70.693336,18.1867 -70.693336,47.52 0,27.5734 21.120001,48.9867 59.253335,48.9867 23.173331,0 39.013331,-7.92 46.933331,-23.1733 v 20.5333 h 51.92001 v -88.2933 c 0,-50.4534 -29.62667,-73.33337 -81.25334,-73.33337 z m -2.05333,129.06667 c -13.200004,0 -20.826671,-6.7467 -20.826671,-16.1333 0,-9.68 6.453334,-16.1334 24.346671,-16.1334 h 24.05333 v 13.7867 c -4.4,12.6133 -15.25333,18.48 -27.57333,18.48 z"
           inkscape:connector-curvature="0" /><path
           id="path4529"
           style="font-style:normal;font-variant:normal;font-weight:800;font-stretch:normal;font-size:293.33334351px;font-family:Montserrat;-inkscape-font-specification:'Montserrat Ultra-Bold';fill:#e91e63;fill-opacity:1"
           d="m 321.95125,978.49623 c -20.82666,0 -36.37333,5.86667 -46.93333,18.48 v -15.84 h -53.09334 v 215.89337 h 55.73334 v -70.9867 c 10.85333,11.1467 25.81333,16.72 44.29333,16.72 43.12001,0 78.02667,-31.68 78.02667,-82.1333 0,-50.4534 -34.90666,-82.13337 -78.02667,-82.13337 z m -11.73333,119.97337 c -18.77333,0 -33.44,-13.7867 -33.44,-37.84 0,-24.0534 14.66667,-37.84 33.44,-37.84 18.77333,0 33.44,13.7866 33.44,37.84 0,24.0533 -14.66667,37.84 -33.44,37.84 z"
           inkscape:connector-curvature="0" /><path
           id="path4531"
           style="font-style:normal;font-variant:normal;font-weight:800;font-stretch:normal;font-size:293.33334351px;font-family:Montserrat;-inkscape-font-specification:'Montserrat Ultra-Bold';fill:#e91e63;fill-opacity:1"
           d="m 525.90963,978.49623 c -20.82667,0 -36.37334,5.86667 -46.93334,18.48 v -15.84 h -53.09333 v 215.89337 h 55.73333 v -70.9867 c 10.85334,11.1467 25.81334,16.72 44.29334,16.72 43.12,0 78.02667,-31.68 78.02667,-82.1333 0,-50.4534 -34.90667,-82.13337 -78.02667,-82.13337 z m -11.73334,119.97337 c -18.77333,0 -33.44,-13.7867 -33.44,-37.84 0,-24.0534 14.66667,-37.84 33.44,-37.84 18.77334,0 33.44001,13.7866 33.44001,37.84 0,24.0533 -14.66667,37.84 -33.44001,37.84 z"
           inkscape:connector-curvature="0" /><path
           id="path4533"
           style="font-style:normal;font-variant:normal;font-weight:800;font-stretch:normal;font-size:293.33334351px;font-family:Montserrat;-inkscape-font-specification:'Montserrat Ultra-Bold';fill:#e91e63;fill-opacity:1"
           d="m 657.70794,963.53623 c 20.53333,0 34.02667,-12.90667 34.02667,-30.50667 0,-16.72 -13.49334,-28.74666 -34.02667,-28.74666 -20.53334,0 -34.02667,12.90666 -34.02667,29.62666 0,16.72 13.49333,29.62667 34.02667,29.62667 z m -27.86667,176.58667 h 55.73334 V 981.13623 h -55.73334 z"
           inkscape:connector-curvature="0" /><path
           id="path4535"
           style="font-style:normal;font-variant:normal;font-weight:800;font-stretch:normal;font-size:293.33334351px;font-family:Montserrat;-inkscape-font-specification:'Montserrat Ultra-Bold';fill:#e91e63;fill-opacity:1"
           d="m 884.01463,1060.9229 c 0,-52.5067 -38.13333,-82.42667 -85.06667,-82.42667 -50.16,0 -87.41334,34.02667 -87.41334,81.83997 0,47.52 36.66667,82.4267 93.28001,82.4267 30.21333,0 52.50667,-8.8 67.76,-25.8133 l -29.33333,-30.5067 c -10.85334,9.3867 -21.12001,13.7867 -36.66667,13.7867 -20.53334,0 -34.32,-9.3867 -39.01334,-25.52 h 115.57334 c 0.29333,-4.4 0.88,-9.68 0.88,-13.7867 z m -84.77334,-42.8267 c 17.30667,0 29.62667,10.56 32.56001,27.28 h -65.12001 c 3.22667,-16.72 15.25334,-27.28 32.56,-27.28 z"
           inkscape:connector-curvature="0" /><path
           id="path4537"
           style="font-style:normal;font-variant:normal;font-weight:800;font-stretch:normal;font-size:293.33334351px;font-family:Montserrat;-inkscape-font-specification:'Montserrat Ultra-Bold';fill:#e91e63;fill-opacity:1"
           d="m 963.09092,1000.2029 v -19.06667 h -53.09334 v 158.98667 h 55.73334 v -73.04 c 0,-27.8667 15.54666,-39.3067 38.13338,-39.3067 4.1066,0 7.6266,0.2934 12.6133,0.88 v -50.15997 c -23.46668,0 -41.94668,7.33334 -53.38668,21.70667 z"
           inkscape:connector-curvature="0" /></g></g></g></svg>