<?xml version="1.0" encoding="UTF-8" standalone="no"?>
<!-- Created with Inkscape (http://www.inkscape.org/) -->

<svg
   xmlns:dc="http://purl.org/dc/elements/1.1/"
   xmlns:cc="http://creativecommons.org/ns#"
   xmlns:rdf="http://www.w3.org/1999/02/22-rdf-syntax-ns#"
   xmlns:svg="http://www.w3.org/2000/svg"
   xmlns="http://www.w3.org/2000/svg"
   xmlns:sodipodi="http://sodipodi.sourceforge.net/DTD/sodipodi-0.dtd"
   xmlns:inkscape="http://www.inkscape.org/namespaces/inkscape"
   width="26.29981mm"
   height="22.9622mm"
   viewBox="0 0 26.29981 22.9622"
   version="1.1"
   id="svg4534"
   inkscape:version="0.92.0 r15299"
   sodipodi:docname="logo_happier_heart.svg">
  <defs
     id="defs4528" />
  <sodipodi:namedview
     id="base"
     pagecolor="#ffffff"
     bordercolor="#666666"
     borderopacity="1.0"
     inkscape:pageopacity="0.0"
     inkscape:pageshadow="2"
     inkscape:zoom="1.979899"
     inkscape:cx="50.549897"
     inkscape:cy="65.178275"
     inkscape:document-units="mm"
     inkscape:current-layer="layer1"
     showgrid="false"
     inkscape:window-width="1536"
     inkscape:window-height="801"
     inkscape:window-x="-8"
     inkscape:window-y="-8"
     inkscape:window-maximized="1"
     fit-margin-top="0"
     fit-margin-left="0"
     fit-margin-right="0"
     fit-margin-bottom="0" />
  <metadata
     id="metadata4531">
    <rdf:RDF>
      <cc:Work
         rdf:about="">
        <dc:format>image/svg+xml</dc:format>
        <dc:type
           rdf:resource="http://purl.org/dc/dcmitype/StillImage" />
        <dc:title></dc:title>
      </cc:Work>
    </rdf:RDF>
  </metadata>
  <g
     inkscape:label="Layer 1"
     inkscape:groupmode="layer"
     id="layer1"
     transform="translate(-94.195332,-146.42366)">
    <path
       inkscape:connector-curvature="0"
       id="path4629"
       d="m 101.29049,146.42366 c -1.942086,0 -3.884136,0.79963 -5.140771,2.28475 -1.370882,1.37088 -2.056343,3.31294 -1.942106,5.25502 0.22848,3.4272 1.942075,5.14086 3.541433,6.62597 1.827843,1.82784 3.541484,3.31291 2.970284,7.65403 0,0.68544 0.34272,1.14243 0.91393,1.14243 0.22847,0 0.34268,-2e-5 0.6854,-0.11426 11.88096,-3.65568 18.1642,-8.56797 18.1642,-14.05148 v -0.11425 c 0.11424,-2.17057 -0.57122,-3.99842 -1.94211,-5.48354 -1.25663,-1.37088 -3.08441,-2.1705 -4.91225,-2.28475 h -0.22852 c -2.28479,0 -4.34116,1.14232 -5.71204,2.97016 -1.25663,-2.39904 -3.65567,-3.88408 -6.28319,-3.88408 z m 3.94475,5.99842 c 0.34715,0 0.65946,0.12963 0.93673,0.38886 0.27726,0.25924 0.48347,0.56366 0.61872,0.91306 0.13525,0.34941 0.20289,0.69088 0.20289,1.02451 0,0.2705 -0.0428,0.52635 -0.12848,0.76755 -0.0857,0.2412 -0.22763,0.44975 -0.426,0.62558 -0.19837,0.17583 -0.43516,0.26369 -0.71017,0.26369 -0.34265,0 -0.65365,-0.12961 -0.93317,-0.38886 -0.27952,-0.25923 -0.48691,-0.56471 -0.62216,-0.91636 -0.13525,-0.35166 -0.20289,-0.69196 -0.20289,-1.02108 0,-0.2705 0.0428,-0.52634 0.12847,-0.76754 0.0857,-0.2412 0.22764,-0.44977 0.42602,-0.62559 0.19836,-0.17584 0.43503,-0.26382 0.71004,-0.26382 z m 4.21999,0 c 0.27501,0 0.51168,0.088 0.71004,0.26382 0.19838,0.17582 0.34036,0.38439 0.42602,0.62559 0.0857,0.2412 0.1286,0.49704 0.1286,0.76754 0,0.32912 -0.0677,0.66942 -0.2029,1.02108 -0.13525,0.35165 -0.34262,0.65713 -0.62215,0.91636 -0.27952,0.25925 -0.59065,0.38886 -0.93329,0.38886 -0.27501,0 -0.51168,-0.0879 -0.71005,-0.26369 -0.19837,-0.17583 -0.34047,-0.38438 -0.42613,-0.62558 -0.0857,-0.2412 -0.12848,-0.49705 -0.12848,-0.76755 0,-0.33363 0.0677,-0.6751 0.20289,-1.02451 0.13525,-0.3494 0.34157,-0.65382 0.61884,-0.91306 0.27726,-0.25923 0.58946,-0.38886 0.93661,-0.38886 z m -6.64779,3.27994 c 0.34264,0 0.66165,0.12516 0.95695,0.37538 0.2953,0.25022 0.52184,0.55229 0.67964,0.9062 0.1578,0.35391 0.23673,0.69762 0.23673,1.03124 0,0.36068 -0.0947,0.67404 -0.28405,0.94004 -0.18935,0.266 -0.45753,0.39904 -0.80469,0.39904 -0.34264,0 -0.66164,-0.12516 -0.95695,-0.37537 -0.2953,-0.25023 -0.52185,-0.55112 -0.67964,-0.90278 -0.1578,-0.35166 -0.23673,-0.6943 -0.23673,-1.02793 0,-0.36068 0.0947,-0.67521 0.28404,-0.94347 0.18936,-0.26824 0.45754,-0.40235 0.8047,-0.40235 z m 9.07559,0 c 0.34716,0 0.61534,0.13411 0.8047,0.40235 0.18935,0.26826 0.28404,0.58279 0.28404,0.94347 0,0.33363 -0.079,0.67627 -0.23673,1.02793 -0.15779,0.35166 -0.38434,0.65255 -0.67965,0.90278 -0.29529,0.25021 -0.61417,0.37537 -0.95682,0.37537 -0.34715,0 -0.61546,-0.13304 -0.80481,-0.39904 -0.18935,-0.266 -0.28405,-0.57936 -0.28405,-0.94004 0,-0.33362 0.079,-0.67733 0.23673,-1.03124 0.1578,-0.35391 0.38434,-0.65598 0.67965,-0.9062 0.2953,-0.25022 0.6143,-0.37538 0.95694,-0.37538 z m -4.53773,2.13029 c 0.532,0 1.10672,0.21972 1.72438,0.65929 0.61765,0.43958 1.13392,0.97385 1.5487,1.60277 0.41478,0.62893 0.62215,1.2026 0.62215,1.72107 0,0.20739 -0.0383,0.37983 -0.11499,0.51734 -0.0767,0.1375 -0.18592,0.23903 -0.32794,0.30439 -0.14201,0.0654 -0.28739,0.11043 -0.43617,0.13522 -0.14878,0.0248 -0.32017,0.0373 -0.51404,0.0373 -0.30657,0 -0.7292,-0.10154 -1.26796,-0.3044 -0.53876,-0.20287 -0.9501,-0.30426 -1.23413,-0.30426 -0.29756,0 -0.73149,0.1003 -1.3018,0.30096 -0.57033,0.20062 -1.02236,0.30083 -1.35599,0.30083 -0.82504,0 -1.23757,-0.32911 -1.23757,-0.98735 0,-0.38772 0.12622,-0.81929 0.37868,-1.29494 0.25248,-0.47564 0.56701,-0.90969 0.94347,-1.30192 0.37645,-0.39224 0.79909,-0.72136 1.26798,-0.98736 0.46887,-0.266 0.90397,-0.39891 1.30523,-0.39891 z"
       style="fill:#e91e63;fill-opacity:1;stroke-width:1.14239931" />
  </g>
</svg>
