<svg id="layer1" xmlns="http://www.w3.org/2000/svg" width="54.977" height="48" viewBox="0 0 54.977 48">
  <path id="path4629" d="M64.463,107.515a14.124,14.124,0,0,0-10.746,4.776,14.369,14.369,0,0,0-4.06,10.985c.478,7.164,4.06,10.746,7.4,13.851,3.821,3.821,7.4,6.925,6.209,16,0,1.433.716,2.388,1.91,2.388a3.549,3.549,0,0,0,1.433-.239c24.836-7.642,37.97-17.91,37.97-29.373v-.239a15.111,15.111,0,0,0-4.06-11.463,15.357,15.357,0,0,0-10.269-4.776h-.478a14.935,14.935,0,0,0-11.94,6.209A14.85,14.85,0,0,0,64.7,107.515Zm8.246,12.539a2.8,2.8,0,0,1,1.958.813,5.107,5.107,0,0,1,1.293,1.909,5.91,5.91,0,0,1,.424,2.142,4.759,4.759,0,0,1-.269,1.6,3.122,3.122,0,0,1-.891,1.308,2.163,2.163,0,0,1-1.485.551,2.8,2.8,0,0,1-1.951-.813,5.058,5.058,0,0,1-1.3-1.916,5.931,5.931,0,0,1-.424-2.134,4.759,4.759,0,0,1,.269-1.6,3.122,3.122,0,0,1,.891-1.308,2.162,2.162,0,0,1,1.484-.551Zm8.821,0a2.162,2.162,0,0,1,1.484.551,3.122,3.122,0,0,1,.891,1.308,4.759,4.759,0,0,1,.269,1.6,5.931,5.931,0,0,1-.424,2.134,5.058,5.058,0,0,1-1.3,1.916,2.8,2.8,0,0,1-1.951.813,2.162,2.162,0,0,1-1.484-.551,3.123,3.123,0,0,1-.891-1.308,4.758,4.758,0,0,1-.269-1.6,5.909,5.909,0,0,1,.424-2.142,5.107,5.107,0,0,1,1.294-1.909,2.8,2.8,0,0,1,1.958-.813Zm-13.9,6.856a3.037,3.037,0,0,1,2,.785,5.52,5.52,0,0,1,1.916,4.05,3.3,3.3,0,0,1-.594,1.965,1.943,1.943,0,0,1-1.682.834,3.037,3.037,0,0,1-2-.785,5.491,5.491,0,0,1-1.916-4.036,3.332,3.332,0,0,1,.594-1.972,1.938,1.938,0,0,1,1.682-.841Zm18.972,0a1.938,1.938,0,0,1,1.682.841,3.332,3.332,0,0,1,.594,1.972,5.491,5.491,0,0,1-1.916,4.036,3.036,3.036,0,0,1-2,.785,1.943,1.943,0,0,1-1.682-.834,3.3,3.3,0,0,1-.594-1.965,5.52,5.52,0,0,1,1.916-4.05A3.037,3.037,0,0,1,86.606,126.91Zm-9.486,4.453a6.343,6.343,0,0,1,3.6,1.378,12.583,12.583,0,0,1,3.237,3.35,6.7,6.7,0,0,1,1.3,3.6,2.2,2.2,0,0,1-.24,1.081,1.472,1.472,0,0,1-.686.636,3.58,3.58,0,0,1-.912.283,6.593,6.593,0,0,1-1.075.078,8.136,8.136,0,0,1-2.651-.636,8.082,8.082,0,0,0-2.58-.636,9.054,9.054,0,0,0-2.721.629,9.152,9.152,0,0,1-2.835.629q-2.587,0-2.587-2.064a5.871,5.871,0,0,1,.792-2.707,12.122,12.122,0,0,1,1.972-2.722,11.568,11.568,0,0,1,2.651-2.064A5.592,5.592,0,0,1,77.12,131.364Z" transform="translate(-49.631 -107.515)" fill="#e91e63"/>
</svg>
