<?xml version="1.0" encoding="UTF-8" standalone="no"?>
<svg
   xmlns:dc="http://purl.org/dc/elements/1.1/"
   xmlns:cc="http://creativecommons.org/ns#"
   xmlns:rdf="http://www.w3.org/1999/02/22-rdf-syntax-ns#"
   xmlns:svg="http://www.w3.org/2000/svg"
   xmlns="http://www.w3.org/2000/svg"
   xmlns:sodipodi="http://sodipodi.sourceforge.net/DTD/sodipodi-0.dtd"
   xmlns:inkscape="http://www.inkscape.org/namespaces/inkscape"
   height="512px"
   id="Layer_1"
   style="enable-background:new 0 0 512 512;"
   version="1.1"
   viewBox="0 0 512 512"
   width="512px"
   xml:space="preserve"
   sodipodi:docname="logo_adopt — kopia.svg"
   inkscape:version="0.92.0 r15299"><metadata
     id="metadata11"><rdf:RDF><cc:Work
         rdf:about=""><dc:format>image/svg+xml</dc:format><dc:type
           rdf:resource="http://purl.org/dc/dcmitype/StillImage" /></cc:Work></rdf:RDF></metadata><defs
     id="defs9" /><sodipodi:namedview
     pagecolor="#ffffff"
     bordercolor="#666666"
     borderopacity="1"
     objecttolerance="10"
     gridtolerance="10"
     guidetolerance="10"
     inkscape:pageopacity="0"
     inkscape:pageshadow="2"
     inkscape:window-width="1536"
     inkscape:window-height="801"
     id="namedview7"
     showgrid="false"
     inkscape:zoom="0.46093752"
     inkscape:cx="290.00749"
     inkscape:cy="362.72464"
     inkscape:window-x="-8"
     inkscape:window-y="-8"
     inkscape:window-maximized="1"
     inkscape:current-layer="Layer_1"
     showguides="true"
     inkscape:guide-bbox="true"><sodipodi:guide
       position="-165.67871,141.13372"
       orientation="1,0"
       id="guide4530"
       inkscape:locked="false" /><sodipodi:guide
       position="-1227.2497,-297.60806"
       orientation="1,0"
       id="guide4597"
       inkscape:locked="false" /></sodipodi:namedview><flowRoot
     xml:space="preserve"
     id="flowRoot4484"
     style="fill:black;fill-opacity:1;stroke:none;font-family:sans-serif;font-style:normal;font-weight:normal;font-size:13.33333333px;line-height:25px;letter-spacing:0px;word-spacing:0px"><flowRegion
       id="flowRegion4486"><rect
         id="rect4488"
         width="967.5932"
         height="286.37289"
         x="-184.40678"
         y="850.44067" /></flowRegion><flowPara
       id="flowPara4490" /></flowRoot><g
     id="g4519"><path
       inkscape:connector-curvature="0"
       id="path4502"
       d="m 110.2913,135.03352 c -9.31945,0 -18.63875,3.83717 -24.668973,10.9638 -6.578434,6.57843 -9.867746,15.89781 -9.319556,25.21725 1.096402,16.44608 9.319429,24.66937 16.994265,31.796 8.771234,8.77124 16.994474,15.89763 14.253464,36.72935 0,3.2892 1.64461,5.48218 4.38563,5.48218 1.0964,0 1.64446,-9e-5 3.28908,-0.54828 57.01306,-17.54247 87.16442,-41.11506 87.16442,-67.42878 v -0.54828 c 0.54819,-10.41584 -2.74112,-19.18717 -9.31955,-26.31381 -6.03023,-6.57843 -14.80119,-10.41559 -23.57243,-10.96379 h -1.09655 c -10.96404,0 -20.83193,5.48163 -27.41037,14.25287 -6.03022,-11.51226 -17.5425,-18.63851 -30.15115,-18.63851 z m 18.9297,28.78459 c 1.66587,0 3.16453,0.62204 4.49506,1.86603 1.33052,1.24399 2.32001,2.70483 2.96905,4.38152 0.64903,1.67668 0.97361,3.31529 0.97361,4.91626 0,1.29808 -0.20547,2.52578 -0.61652,3.68323 -0.41105,1.15746 -1.09236,2.15825 -2.04427,3.002 -0.95193,0.84375 -2.0882,1.26539 -3.40791,1.26539 -1.64425,0 -3.13665,-0.62203 -4.47801,-1.86603 -1.34134,-1.24399 -2.33649,-2.70989 -2.98553,-4.3974 -0.64903,-1.6875 -0.97359,-3.32046 -0.97359,-4.89979 0,-1.29808 0.20545,-2.52577 0.6165,-3.68323 0.41107,-1.15745 1.09236,-2.15824 2.04429,-3.00199 0.95193,-0.84376 2.0876,-1.26599 3.40732,-1.26599 z m 20.25041,0 c 1.31971,0 2.45538,0.42223 3.40731,1.26599 0.95193,0.84375 1.63322,1.84454 2.04427,3.00199 0.41105,1.15746 0.6171,2.38515 0.6171,3.68323 0,1.57933 -0.32456,3.21229 -0.97359,4.89979 -0.64904,1.68751 -1.64417,3.15341 -2.98553,4.3974 -1.34134,1.244 -2.83435,1.86603 -4.47858,1.86603 -1.31972,0 -2.45539,-0.42164 -3.40732,-1.26539 -0.95193,-0.84375 -1.63381,-1.84454 -2.04486,-3.002 -0.41106,-1.15745 -0.61653,-2.38515 -0.61653,-3.68323 0,-1.60097 0.32456,-3.23958 0.97362,-4.91626 0.64903,-1.67669 1.6391,-3.13753 2.96964,-4.38152 1.33051,-1.24399 2.82859,-1.86603 4.49447,-1.86603 z m -31.90072,15.73946 c 1.64423,0 3.17505,0.60059 4.5921,1.80132 1.41707,1.20073 2.50423,2.65025 3.26144,4.34857 0.75722,1.69833 1.13597,3.34766 1.13597,4.94862 0,1.73078 -0.45438,3.23449 -1.36304,4.51094 -0.90866,1.27645 -2.19561,1.91485 -3.86149,1.91485 -1.64423,0 -3.17503,-0.60059 -4.59212,-1.80131 -1.41707,-1.20073 -2.50421,-2.6446 -3.26142,-4.3321 -0.75721,-1.68751 -1.13597,-3.33177 -1.13597,-4.93274 0,-1.73077 0.45438,-3.24015 1.36304,-4.52741 0.90867,-1.28727 2.19562,-1.93074 3.86149,-1.93074 z m 43.55102,0 c 1.66588,0 2.95283,0.64347 3.86149,1.93074 0.90864,1.28726 1.36304,2.79664 1.36304,4.52741 0,1.60097 -0.37875,3.24523 -1.13597,4.93274 -0.75721,1.6875 -1.84436,3.13137 -3.26143,4.3321 -1.41707,1.20072 -2.9473,1.80131 -4.59153,1.80131 -1.66588,0 -2.95342,-0.6384 -3.86206,-1.91485 -0.90866,-1.27645 -1.36305,-2.78016 -1.36305,-4.51094 0,-1.60096 0.37876,-3.25029 1.13597,-4.94862 0.75722,-1.69832 1.84435,-3.14784 3.26142,-4.34857 1.41707,-1.20073 2.94789,-1.80132 4.59212,-1.80132 z m -21.77521,10.22256 c 2.55289,0 5.31081,1.0544 8.27476,3.16378 2.96394,2.10938 5.44135,4.67314 7.43175,7.69118 1.99039,3.01804 2.98552,5.7709 2.98552,8.25888 0,0.99519 -0.18402,1.82268 -0.5518,2.48255 -0.36779,0.65985 -0.89216,1.14699 -1.57367,1.4607 -0.68148,0.3137 -1.37914,0.52989 -2.09308,0.64887 -0.71395,0.119 -1.53637,0.17883 -2.46668,0.17883 -1.47116,0 -3.49923,-0.48713 -6.08459,-1.46069 -2.58534,-0.97356 -4.55923,-1.46012 -5.92221,-1.46012 -1.42789,0 -3.51018,0.48149 -6.24696,1.44423 -2.73679,0.96275 -4.90601,1.44364 -6.50698,1.44364 -3.95914,0 -5.93869,-1.57935 -5.93869,-4.73801 0,-1.86058 0.60566,-3.93155 1.8172,-6.21401 1.21153,-2.28246 2.7209,-4.36533 4.5274,-6.24755 1.8065,-1.88221 3.83459,-3.46157 6.08459,-4.73801 2.25002,-1.27645 4.33794,-1.91427 6.26344,-1.91427 z"
       style="fill:#e91e63;fill-opacity:1;stroke-width:5.48202467" /><flowRoot
       xml:space="preserve"
       id="flowRoot4512"
       style="font-style:normal;font-weight:normal;font-size:13.33333302px;line-height:25px;font-family:sans-serif;letter-spacing:0px;word-spacing:0px;fill:#e91e63;fill-opacity:1;stroke:none"
       transform="matrix(0.21261701,0,0,0.21261701,247.34406,-33.259577)"><flowRegion
         id="flowRegion4508"
         style="fill:#e91e63;fill-opacity:1"><rect
           id="rect4506"
           width="1635.7966"
           height="223.45761"
           x="-184.40678"
           y="1041.356"
           style="fill:#e91e63;fill-opacity:1" /></flowRegion><flowPara
         id="flowPara4510"
         style="font-style:normal;font-variant:normal;font-weight:800;font-stretch:normal;font-size:293.33334351px;font-family:Montserrat;-inkscape-font-specification:'Montserrat Ultra-Bold';fill:#e91e63;fill-opacity:1">happier</flowPara></flowRoot></g></svg>