<?xml version="1.0" encoding="UTF-8" standalone="no"?>
<svg
   xmlns:dc="http://purl.org/dc/elements/1.1/"
   xmlns:cc="http://creativecommons.org/ns#"
   xmlns:rdf="http://www.w3.org/1999/02/22-rdf-syntax-ns#"
   xmlns:svg="http://www.w3.org/2000/svg"
   xmlns="http://www.w3.org/2000/svg"
   xmlns:sodipodi="http://sodipodi.sourceforge.net/DTD/sodipodi-0.dtd"
   xmlns:inkscape="http://www.inkscape.org/namespaces/inkscape"
   height="700"
   viewBox="0 0 255 700"
   width="255"
   version="1.1"
   id="svg4"
   sodipodi:docname="pawsSteps.svg"
   inkscape:version="0.92.0 r15299">
  <metadata
     id="metadata10">
    <rdf:RDF>
      <cc:Work
         rdf:about="">
        <dc:format>image/svg+xml</dc:format>
        <dc:type
           rdf:resource="http://purl.org/dc/dcmitype/StillImage" />
        <dc:title />
      </cc:Work>
    </rdf:RDF>
  </metadata>
  <defs
     id="defs8" />
  <sodipodi:namedview
     pagecolor="#ffffff"
     bordercolor="#666666"
     borderopacity="1"
     objecttolerance="10"
     gridtolerance="10"
     guidetolerance="10"
     inkscape:pageopacity="0"
     inkscape:pageshadow="2"
     inkscape:window-width="1536"
     inkscape:window-height="801"
     id="namedview6"
     showgrid="false"
     showguides="true"
     inkscape:guide-bbox="true"
     inkscape:zoom="0.5"
     inkscape:cx="-347.5134"
     inkscape:cy="426.62153"
     inkscape:window-x="-8"
     inkscape:window-y="-8"
     inkscape:window-maximized="1"
     inkscape:current-layer="svg4">
    <sodipodi:guide
       position="499.25424,704.27119"
       orientation="1,0"
       id="guide4487"
       inkscape:locked="false" />
  </sodipodi:namedview>
  <g
     id="g4575"
     transform="matrix(0.76829221,0,0,0.76829221,-321.73259,-38.5773)"
     style="opacity:0.9;fill:#00666f;fill-opacity:0.94117647">
    <path
       d="m 501.26997,81.04058 q -0.42249,-1.37905 -1.2359,-2.47491 -0.81341,-1.09585 -2.09932,-1.68241 -1.28592,-0.586551 -2.68794,-0.15702 -1.74679,0.53515 -2.76692,2.2933 -1.02013,1.75815 -1.16042,3.76215 -0.14028,2.00399 0.37374,3.68183 0.42249,1.37904 1.2359,2.4749 0.81342,1.09586 2.09933,1.68241 1.28591,0.58656 2.68794,0.15703 1.76977,-0.54219 2.77841,-2.29682 1.00862,-1.75464 1.15244,-3.74714 0.14381,-1.99251 -0.37726,-3.69332 z m -11.26155,-8.693121 q -0.56331,-1.83872 -1.94409,-2.89905 -1.38077,-1.06031 -3.15054,-0.51812 -1.74679,0.53516 -2.86145,2.27198 -1.11465,1.73683 -1.36987,3.77604 -0.2552,2.039201 0.26587,3.740021 0.56331,1.83872 1.9476,2.91053 1.3843,1.07181 3.15407,0.52962 1.74678,-0.53515 2.86145,-2.27198 1.11464,-1.73682 1.36633,-3.787531 0.2517,-2.05069 -0.26937,-3.75151 z m 9.24582,-2.15376 q 2.71212,-0.83089 5.17439,-4.036513 2.46228,-3.20562 3.59452,-7.059709 1.13225,-3.854083 0.32248,-6.497248 -0.3239,-1.057264 -0.92939,-1.638572 -0.60549,-0.581309 -1.43159,-0.692774 -0.8261,-0.111462 -1.62329,-0.0055 -0.79721,0.10596 -1.78552,0.408741 -1.56292,0.478819 -3.99264,2.354554 -2.42974,1.875732 -3.87773,2.319342 -1.51694,0.464735 -4.73776,0.332687 -3.22083,-0.132047 -4.92164,0.389018 -4.20608,1.288583 -3.17803,4.644251 0.60556,1.976627 2.63553,4.007122 2.02998,2.0305 4.56175,3.442161 2.53177,1.41164 5.33756,2.03539 2.80579,0.62375 4.85136,-0.003 z m 6.97893,3.16673 q -1.40202,0.42953 -2.13871,1.63572 -0.73668,1.20621 -0.79666,2.569641 -0.06,1.36343 0.36251,2.74248 0.52107,1.70081 1.7563,3.27084 1.23523,1.57001 3.05363,2.45855 1.81841,0.88853 3.58817,0.34634 1.40203,-0.42953 2.13871,-1.63573 0.73668,-1.2062 0.79666,-2.56963 0.06,-1.36344 -0.36251,-2.74247 -0.51402,-1.67784 -1.75277,-3.259351 -1.23875,-1.58152 -3.06865,-2.46652 -1.8299,-0.88501 -3.57668,-0.34987 z m 10.66142,-0.65156 q 1.76977,-0.54219 2.31613,-2.20548 0.54636,-1.66329 -0.017,-3.502023 -0.52107,-1.70081 -1.87474,-3.24712 -1.35367,-1.546301 -3.24993,-2.360705 -1.89625,-0.814395 -3.64305,-0.279244 -1.76976,0.54219 -2.31965,2.193979 -0.54988,1.65181 0.0134,3.49053 0.52107,1.700823 1.87826,3.258603 1.3572,1.55781 3.25345,2.37221 1.89626,0.8144 3.64305,0.27925 z"
       id="path4489"
       inkscape:connector-curvature="0"
       style="fill:#00666f;fill-opacity:0.94117647;stroke-width:0.02403846" />
    <path
       d="m 437.39128,129.3989 q 0.37073,-1.39385 0.2599,-2.7541 -0.11083,-1.36025 -0.89201,-2.53812 -0.78119,-1.17786 -2.19827,-1.55476 -1.76554,-0.46959 -3.56114,0.48311 -1.79558,0.95269 -2.97443,2.57933 -1.17888,1.62664 -1.62992,3.32249 -0.37073,1.39385 -0.2599,2.75409 0.11081,1.36025 0.892,2.53812 0.78118,1.17786 2.19827,1.55477 1.78877,0.47576 3.57275,-0.48002 1.78397,-0.95579 2.95975,-2.57081 1.17578,-1.61503 1.633,-3.3341 z m -4.96061,-13.33362 q 0.4943,-1.85847 -0.11686,-3.48859 -0.61114,-1.63013 -2.39992,-2.10589 -1.76554,-0.46959 -3.63008,0.41502 -1.86454,0.8846 -3.15956,2.48035 -1.29502,1.59575 -1.75224,3.31483 -0.4943,1.85847 0.11376,3.50021 0.60806,1.64174 2.39684,2.1175 1.76553,0.46958 3.63008,-0.41502 1.86453,-0.88461 3.16264,-2.49197 1.29811,-1.60735 1.75534,-3.32644 z m 8.98611,3.06165 q 2.74124,0.7291 6.52628,-0.68943 3.78506,-1.41851 6.78423,-4.09077 2.99916,-2.67225 3.70971,-5.3438 0.28422,-1.06862 0.0777,-1.8822 -0.20647,-0.81357 -0.84865,-1.34505 -0.64218,-0.53148 -1.37481,-0.86315 -0.73263,-0.33166 -1.73156,-0.59735 -1.5797,-0.42015 -4.63382,-0.11312 -3.05413,0.30702 -4.51767,-0.0822 -1.53323,-0.40779 -4.19698,-2.22317 -2.66374,-1.81538 -4.38282,-2.272608 -4.25124,-1.13071 -5.15333,2.260988 -0.53138,1.99785 0.11769,4.79471 0.64907,2.79686 2.05129,5.33386 1.40222,2.53701 3.45369,4.55022 2.05146,2.01321 4.119,2.56311 z m 4.24845,6.37842 q -1.41707,-0.3769 -2.68021,0.25723 -1.26311,0.63414 -2.03507,1.7596 -0.77196,1.12545 -1.14268,2.5193 -0.45722,1.71908 -0.23915,3.70483 0.21808,1.98575 1.29149,3.70152 1.07343,1.71576 2.8622,2.19152 1.41708,0.37691 2.68021,-0.25723 1.26313,-0.63414 2.03507,-1.75959 0.77195,-1.12546 1.14267,-2.51931 0.45105,-1.69584 0.23606,-3.69321 -0.21497,-1.99736 -1.3,-3.71621 -1.08504,-1.71887 -2.85059,-2.18845 z m 9.39312,5.08521 q 1.78878,0.47577 3.1321,-0.64695 1.34334,-1.12273 1.83764,-2.9812 0.45722,-1.71908 0.12609,-3.74734 -0.33114,-2.02826 -1.50984,-3.72227 -1.1787,-1.69403 -2.94424,-2.16361 -1.78878,-0.47576 -3.12901,0.63535 -1.34025,1.11111 -1.83455,2.96958 -0.45722,1.71908 -0.12917,3.75895 0.32805,2.03988 1.50674,3.7339 1.17871,1.69401 2.94424,2.16359 z"
       id="path4502"
       inkscape:connector-curvature="0"
       style="fill:#00666f;fill-opacity:0.94117647;stroke-width:0.02403846" />
    <path
       style="fill:#00666f;fill-opacity:0.94117647;stroke-width:0.02403846"
       inkscape:connector-curvature="0"
       id="path4504"
       d="m 509.13663,173.56515 q -0.21811,-1.42572 -0.86408,-2.62792 -0.64597,-1.2022 -1.83325,-1.96898 -1.18731,-0.76677 -2.63679,-0.54502 -1.80592,0.27627 -3.07014,1.86798 -1.26422,1.59169 -1.69353,3.55418 -0.42932,1.96249 -0.16396,3.69711 0.21811,1.42572 0.86407,2.62793 0.64595,1.2022 1.83326,1.96897 1.1873,0.76677 2.63678,0.54503 1.82968,-0.27991 3.08202,-1.86979 1.25234,-1.58988 1.68348,-3.54049 0.43114,-1.95061 0.16214,-3.709 z m -9.88239,-10.23383 q -0.29082,-1.90096 -1.5033,-3.15024 -1.21247,-1.24929 -3.04216,-0.96938 -1.80591,0.27627 -3.16057,1.83317 -1.35466,1.55689 -1.90279,3.53756 -0.54812,1.98067 -0.27912,3.73906 0.29081,1.90096 1.50511,3.16213 1.21429,1.26115 3.04398,0.98124 1.8059,-0.27627 3.16057,-1.83316 1.35465,-1.5569 1.90096,-3.54945 0.54632,-1.99254 0.27732,-3.75093 z m 9.46038,-0.79067 q 2.80391,-0.42895 5.70487,-3.24376 2.90098,-2.81482 4.57998,-6.46406 1.679,-3.64923 1.26095,-6.38187 -0.16721,-1.09305 -0.68204,-1.75599 -0.51482,-0.66294 -1.31604,-0.89298 -0.80121,-0.23005 -1.60534,-0.24078 -0.80414,-0.0107 -1.82592,0.14558 -1.61582,0.2472 -4.29179,1.75089 -2.67598,1.50369 -4.17299,1.7327 -1.56829,0.23992 -4.73595,-0.35764 -3.16766,-0.59756 -4.92604,-0.32856 -4.34845,0.66524 -3.81772,4.13448 0.31263,2.04354 2.0268,4.34687 1.71418,2.30332 4.01457,4.06708 2.30038,1.76376 4.98612,2.78766 2.68572,1.0239 4.80054,0.70038 z m 6.44613,4.14497 q -1.44948,0.22175 -2.35324,1.30841 -0.90375,1.08667 -1.16075,2.42701 -0.25701,1.34034 -0.0389,2.76606 0.269,1.75838 1.26359,3.49088 0.99459,1.7325 2.66498,2.87526 1.67039,1.14276 3.50006,0.86285 1.44949,-0.22175 2.35324,-1.30841 0.90377,-1.08667 1.16075,-2.427 0.257,-1.34034 0.0389,-2.76607 -0.26537,-1.73461 -1.26178,-3.479 -0.99638,-1.74438 -2.67865,-2.88532 -1.68227,-1.14094 -3.48819,-0.86467 z m 10.64324,0.90087 q 1.82969,-0.27991 2.61139,-1.84642 0.78172,-1.56652 0.49091,-3.46748 -0.269,-1.75839 -1.38421,-3.4846 -1.11522,-1.72621 -2.87338,-2.80689 -1.75816,-1.0807 -3.56407,-0.80443 -1.82969,0.27991 -2.61321,1.83455 -0.78354,1.55464 -0.49272,3.4556 0.269,1.75839 1.38603,3.49647 1.11703,1.73809 2.87519,2.81878 1.75817,1.08069 3.56407,0.80442 z" />
    <path
       d="m 437.5133,223.4385 q 0,-1.44231 -0.45674,-2.72837 -0.45674,-1.28606 -1.51442,-2.22356 -1.0577,-0.9375 -2.52404,-0.9375 -1.82693,0 -3.31732,1.38222 -1.49038,1.38221 -2.21152,3.25721 -0.72116,1.875 -0.72116,3.6298 0,1.44231 0.45673,2.72837 0.45672,1.28606 1.51442,2.22356 1.05769,0.9375 2.52404,0.9375 1.85096,0 3.32933,-1.38221 1.47836,-1.38222 2.19952,-3.2452 0.72116,-1.86298 0.72116,-3.64182 z m -8.22116,-11.61058 q 0,-1.92308 -1.00962,-3.34135 -1.00961,-1.41827 -2.86058,-1.41827 -1.82692,0 -3.40144,1.33414 -1.57452,1.33413 -2.41587,3.20913 -0.84134,1.875 -0.84134,3.65385 0,1.92308 1.00962,3.35337 1.00961,1.43028 2.86058,1.43028 1.82691,0 3.40144,-1.33413 1.57451,-1.33414 2.41586,-3.22116 0.84135,-1.88701 0.84135,-3.66586 z m 9.47115,0.64904 q 2.83654,0 6.1298,-2.34375 3.29328,-2.34375 5.50482,-5.69712 2.21153,-3.35336 2.21153,-6.11779 0,-1.10577 -0.40865,-1.83894 -0.40865,-0.73317 -1.16587,-1.08173 -0.75721,-0.34856 -1.55047,-0.48077 -0.79327,-0.13221 -1.82693,-0.13221 -1.63462,0 -4.50721,1.08173 -2.8726,1.08173 -4.38702,1.08173 -1.58654,0 -4.62741,-1.06971 -3.04086,-1.06971 -4.8197,-1.06971 -4.39904,0 -4.39904,3.50961 0,2.06731 1.34615,4.60337 1.34615,2.53606 3.35336,4.6274 2.00721,2.09135 4.50722,3.50962 2.5,1.41827 4.63942,1.41827 z m 5.74519,5.07211 q -1.46634,0 -2.52404,0.9375 -1.05768,0.9375 -1.51442,2.22356 -0.45674,1.28606 -0.45674,2.72837 0,1.77884 0.72116,3.64182 0.72116,1.86298 2.19952,3.2452 1.47837,1.38221 3.32933,1.38221 1.46635,0 2.52404,-0.9375 1.0577,-0.9375 1.51442,-2.22356 0.45673,-1.28606 0.45673,-2.72837 0,-1.7548 -0.72116,-3.6298 -0.72114,-1.875 -2.21152,-3.25721 -1.49039,-1.38222 -3.31732,-1.38222 z m 10.38461,2.5 q 1.85097,0 2.86058,-1.43028 1.00962,-1.43029 1.00962,-3.35337 0,-1.77885 -0.84134,-3.65385 -0.84135,-1.875 -2.41587,-3.20913 -1.57452,-1.33414 -3.40144,-1.33414 -1.85097,0 -2.86058,1.41827 -1.00962,1.41827 -1.00962,3.34135 0,1.77885 0.84135,3.66586 0.84135,1.88702 2.41586,3.22116 1.57453,1.33413 3.40144,1.33413 z"
       id="path4506"
       inkscape:connector-curvature="0"
       style="fill:#00666f;fill-opacity:0.94117647;stroke-width:0.02403846" />
    <path
       style="fill:#00666f;fill-opacity:0.94117647;stroke-width:0.02403846"
       inkscape:connector-curvature="0"
       id="path4508"
       d="m 510.5158,254.06245 q -0.42248,-1.37904 -1.23591,-2.4749 -0.81342,-1.09586 -2.09932,-1.68241 -1.28592,-0.58655 -2.68794,-0.15703 -1.7468,0.53515 -2.76693,2.29331 -1.02012,1.75815 -1.16039,3.76215 -0.1403,2.004 0.37373,3.68182 0.42248,1.37905 1.2359,2.47491 0.8134,1.09586 2.09932,1.68241 1.28591,0.58656 2.68794,0.15703 1.76977,-0.54219 2.77841,-2.29682 1.00863,-1.75464 1.15244,-3.74715 0.14382,-1.9925 -0.37725,-3.69332 z m -11.26156,-8.69311 q -0.56332,-1.83873 -1.9441,-2.89904 -1.38077,-1.06032 -3.15054,-0.51813 -1.74679,0.53515 -2.86144,2.27199 -1.11466,1.73682 -1.36987,3.77603 -0.2552,2.0392 0.26587,3.74002 0.56331,1.83873 1.94761,2.91054 1.38429,1.0718 3.15407,0.5296 1.74677,-0.53514 2.86144,-2.27197 1.11464,-1.73683 1.36633,-3.78753 0.2517,-2.05069 -0.26937,-3.75151 z m 9.24582,-2.15376 q 2.71212,-0.83089 5.17438,-4.03651 2.46229,-3.20562 3.59453,-7.05971 1.13225,-3.85408 0.32248,-6.49725 -0.32391,-1.05727 -0.9294,-1.63857 -0.60548,-0.58131 -1.43159,-0.69277 -0.8261,-0.11147 -1.62329,-0.006 -0.7972,0.10595 -1.78552,0.40874 -1.56292,0.47882 -3.99264,2.35455 -2.42973,1.87573 -3.87772,2.31934 -1.51695,0.46474 -4.73778,0.3327 -3.22082,-0.13205 -4.92163,0.38902 -4.20608,1.28858 -3.17803,4.64424 0.60557,1.97663 2.63554,4.00713 2.02998,2.0305 4.56175,3.44214 2.53177,1.41166 5.33756,2.0354 2.80579,0.62375 4.85136,-0.003 z m 6.97893,3.16672 q -1.40202,0.42953 -2.13871,1.63573 -0.73667,1.2062 -0.79666,2.56964 -0.06,1.36343 0.3625,2.74248 0.52107,1.70081 1.75631,3.27083 1.23524,1.57001 3.05363,2.45856 1.81841,0.88853 3.58818,0.34634 1.40203,-0.42953 2.13871,-1.63573 0.73669,-1.20621 0.79665,-2.56964 0.06,-1.36343 -0.36251,-2.74248 -0.51402,-1.67782 -1.75278,-3.25933 -1.23874,-1.58152 -3.06863,-2.46653 -1.8299,-0.88502 -3.57669,-0.34987 z m 10.66141,-0.65156 q 1.76977,-0.5422 2.31613,-2.20548 0.54637,-1.66329 -0.017,-3.50202 -0.52106,-1.70082 -1.87473,-3.24712 -1.35368,-1.54631 -3.24993,-2.3607 -1.89626,-0.8144 -3.64304,-0.27925 -1.76978,0.54219 -2.31966,2.19399 -0.54989,1.6518 0.0134,3.49052 0.52107,1.70082 1.87826,3.25861 1.3572,1.5578 3.25345,2.3722 1.89626,0.81439 3.64304,0.27925 z" />
    <path
       d="m 461.57345,314.73065 q -0.21811,-1.42572 -0.86408,-2.62792 -0.64597,-1.2022 -1.83325,-1.96898 -1.18731,-0.76677 -2.63679,-0.54502 -1.80592,0.27627 -3.07014,1.86798 -1.26422,1.59169 -1.69353,3.55418 -0.42932,1.96249 -0.16396,3.69711 0.21811,1.42572 0.86407,2.62793 0.64595,1.2022 1.83326,1.96897 1.1873,0.76677 2.63678,0.54503 1.82968,-0.27991 3.08202,-1.86979 1.25234,-1.58988 1.68348,-3.54049 0.43114,-1.95061 0.16214,-3.709 z m -9.88239,-10.23383 q -0.29082,-1.90096 -1.5033,-3.15024 -1.21247,-1.24929 -3.04216,-0.96938 -1.80591,0.27627 -3.16057,1.83317 -1.35466,1.55689 -1.90279,3.53756 -0.54812,1.98067 -0.27912,3.73906 0.29081,1.90096 1.50511,3.16213 1.21429,1.26115 3.04398,0.98124 1.8059,-0.27627 3.16057,-1.83316 1.35465,-1.5569 1.90096,-3.54945 0.54632,-1.99254 0.27732,-3.75093 z m 9.46038,-0.79067 q 2.80391,-0.42895 5.70487,-3.24376 2.90098,-2.81482 4.57998,-6.46406 1.679,-3.64923 1.26095,-6.38187 -0.16721,-1.09305 -0.68204,-1.75599 -0.51482,-0.66294 -1.31604,-0.89298 -0.80121,-0.23005 -1.60534,-0.24078 -0.80414,-0.0107 -1.82592,0.14558 -1.61582,0.2472 -4.29179,1.75089 -2.67598,1.50369 -4.17299,1.7327 -1.56829,0.23992 -4.73595,-0.35764 -3.16766,-0.59756 -4.92604,-0.32856 -4.34845,0.66524 -3.81772,4.13448 0.31263,2.04354 2.0268,4.34687 1.71418,2.30332 4.01457,4.06708 2.30038,1.76376 4.98612,2.78766 2.68572,1.0239 4.80054,0.70038 z m 6.44613,4.14497 q -1.44948,0.22175 -2.35324,1.30841 -0.90375,1.08667 -1.16075,2.42701 -0.25701,1.34034 -0.0389,2.76606 0.269,1.75838 1.26359,3.49088 0.99459,1.7325 2.66498,2.87526 1.67039,1.14276 3.50006,0.86285 1.44949,-0.22175 2.35324,-1.30841 0.90377,-1.08667 1.16075,-2.427 0.257,-1.34034 0.0389,-2.76607 -0.26537,-1.73461 -1.26178,-3.479 -0.99638,-1.74438 -2.67865,-2.88532 -1.68227,-1.14094 -3.48819,-0.86467 z m 10.64324,0.90087 q 1.82969,-0.27991 2.61139,-1.84642 0.78172,-1.56652 0.49091,-3.46748 -0.269,-1.75839 -1.38421,-3.4846 -1.11522,-1.72621 -2.87338,-2.80689 -1.75816,-1.0807 -3.56407,-0.80443 -1.82969,0.27991 -2.61321,1.83455 -0.78354,1.55464 -0.49272,3.4556 0.269,1.75839 1.38603,3.49647 1.11703,1.73809 2.87519,2.81878 1.75817,1.08069 3.56407,0.80442 z"
       id="path4510"
       inkscape:connector-curvature="0"
       style="fill:#00666f;fill-opacity:0.94117647;stroke-width:0.02403846" />
    <path
       style="fill:#00666f;fill-opacity:0.94117647;stroke-width:0.02403846"
       inkscape:connector-curvature="0"
       id="path4512"
       d="m 564.3173,316.52347 q -0.95033,-1.08496 -2.14128,-1.75144 -1.19096,-0.66647 -2.60429,-0.67479 -1.41336,-0.008 -2.51639,0.95785 -1.37428,1.20376 -1.58467,3.22552 -0.21038,2.02175 0.48258,3.90735 0.69294,1.88561 1.84917,3.20563 0.95033,1.08496 2.14128,1.75144 1.19094,0.66649 2.60429,0.6748 1.41335,0.008 2.51639,-0.95786 1.39235,-1.21959 1.59371,-3.23343 0.20133,-2.01383 -0.48369,-3.8904 -0.68503,-1.87657 -1.8571,-3.21467 z m -13.83439,-3.31701 q -1.26711,-1.44661 -2.96107,-1.84825 -1.69396,-0.40165 -3.08632,0.81795 -1.37428,1.20375 -1.67963,3.24478 -0.30535,2.04102 0.29718,4.00582 0.60254,1.9648 1.77462,3.30291 1.2671,1.44661 2.96899,1.85729 1.70186,0.41068 3.09423,-0.80891 1.37427,-1.20375 1.67963,-3.24477 0.30534,-2.04103 -0.30511,-4.01487 -0.61045,-1.97384 -1.78252,-3.31195 z m 7.55218,-5.75226 q 2.13374,-1.86898 3.06676,-5.80195 0.93304,-3.93297 0.38712,-7.91267 -0.54592,-3.97968 -2.36739,-6.05918 -0.72858,-0.8318 -1.51907,-1.11406 -0.79048,-0.28226 -1.58975,-0.0455 -0.79927,0.23673 -1.4831,0.65995 -0.68383,0.42323 -1.46139,1.1043 -1.22962,1.07704 -2.67773,3.78349 -1.44813,2.70646 -2.58733,3.7043 -1.19345,1.04536 -4.18573,2.2443 -2.99226,1.19894 -4.33037,2.37101 -3.30911,2.8985 -0.99665,5.53855 1.36214,1.5551 4.04576,2.57585 2.68362,1.02074 5.57148,1.27138 2.88788,0.25065 5.70296,-0.32973 2.81508,-0.58036 4.42443,-1.99001 z m 7.66372,0.0299 q -1.10303,0.96617 -1.28096,2.3683 -0.17791,1.40212 0.32589,2.67048 0.50381,1.26837 1.45414,2.35332 1.17206,1.33811 2.94205,2.26434 1.76999,0.92623 3.79281,0.9919 2.02281,0.0657 3.41517,-1.15393 1.10304,-0.96617 1.28095,-2.3683 0.17793,-1.40213 -0.32589,-2.67048 -0.50381,-1.26836 -1.45414,-2.35331 -1.15623,-1.32003 -2.93414,-2.2553 -1.77789,-0.93528 -3.80974,-0.99303 -2.03186,-0.0577 -3.40614,1.14601 z m 9.4589,-4.96177 q 1.39237,-1.2196 1.20943,-2.96073 -0.18294,-1.74115 -1.45005,-3.18776 -1.17207,-1.33811 -3.04038,-2.1942 -1.86833,-0.85608 -3.93179,-0.82222 -2.06346,0.0339 -3.43774,1.23761 -1.39236,1.21959 -1.21733,2.95169 0.17501,1.73211 1.44212,3.17872 1.17208,1.33811 3.04831,2.20322 1.87624,0.86513 3.9397,0.83128 2.06347,-0.0339 3.43773,-1.23761 z" />
    <path
       d="m 510.5158,381.01859 q -0.42248,-1.37904 -1.23591,-2.4749 -0.81342,-1.09586 -2.09932,-1.68241 -1.28592,-0.58655 -2.68794,-0.15703 -1.7468,0.53515 -2.76693,2.29331 -1.02012,1.75815 -1.16039,3.76215 -0.1403,2.004 0.37373,3.68182 0.42248,1.37905 1.2359,2.47491 0.8134,1.09586 2.09932,1.68241 1.28591,0.58656 2.68794,0.15703 1.76977,-0.54219 2.77841,-2.29682 1.00863,-1.75464 1.15244,-3.74715 0.14382,-1.9925 -0.37725,-3.69332 z m -11.26156,-8.69311 q -0.56332,-1.83873 -1.9441,-2.89904 -1.38077,-1.06032 -3.15054,-0.51813 -1.74679,0.53515 -2.86144,2.27199 -1.11466,1.73682 -1.36987,3.77603 -0.2552,2.0392 0.26587,3.74002 0.56331,1.83873 1.94761,2.91054 1.38429,1.0718 3.15407,0.5296 1.74677,-0.53514 2.86144,-2.27197 1.11464,-1.73683 1.36633,-3.78753 0.2517,-2.05069 -0.26937,-3.75151 z m 9.24582,-2.15376 q 2.71212,-0.83089 5.17438,-4.03651 2.46229,-3.20562 3.59453,-7.05971 1.13225,-3.85408 0.32248,-6.49725 -0.32391,-1.05727 -0.9294,-1.63857 -0.60548,-0.58131 -1.43159,-0.69277 -0.8261,-0.11147 -1.62329,-0.006 -0.7972,0.10595 -1.78552,0.40874 -1.56292,0.47882 -3.99264,2.35455 -2.42973,1.87573 -3.87772,2.31934 -1.51695,0.46474 -4.73778,0.3327 -3.22082,-0.13205 -4.92163,0.38902 -4.20608,1.28858 -3.17803,4.64424 0.60557,1.97663 2.63554,4.00713 2.02998,2.0305 4.56175,3.44214 2.53177,1.41166 5.33756,2.0354 2.80579,0.62375 4.85136,-0.003 z m 6.97893,3.16672 q -1.40202,0.42953 -2.13871,1.63573 -0.73667,1.2062 -0.79666,2.56964 -0.06,1.36343 0.3625,2.74248 0.52107,1.70081 1.75631,3.27083 1.23524,1.57001 3.05363,2.45856 1.81841,0.88853 3.58818,0.34634 1.40203,-0.42953 2.13871,-1.63573 0.73669,-1.20621 0.79665,-2.56964 0.06,-1.36343 -0.36251,-2.74248 -0.51402,-1.67782 -1.75278,-3.25933 -1.23874,-1.58152 -3.06863,-2.46653 -1.8299,-0.88502 -3.57669,-0.34987 z m 10.66141,-0.65156 q 1.76977,-0.5422 2.31613,-2.20548 0.54637,-1.66329 -0.017,-3.50202 -0.52106,-1.70082 -1.87473,-3.24712 -1.35368,-1.54631 -3.24993,-2.3607 -1.89626,-0.8144 -3.64304,-0.27925 -1.76978,0.54219 -2.31966,2.19399 -0.54989,1.6518 0.0134,3.49052 0.52107,1.70082 1.87826,3.25861 1.3572,1.5578 3.25345,2.3722 1.89626,0.81439 3.64304,0.27925 z"
       id="path4514"
       inkscape:connector-curvature="0"
       style="fill:#00666f;fill-opacity:0.94117647;stroke-width:0.02403846" />
    <path
       style="fill:#00666f;fill-opacity:0.94117647;stroke-width:0.02403846"
       inkscape:connector-curvature="0"
       id="path4516"
       d="m 620.3434,360.46877 q -1.23633,-0.7428 -2.57394,-1.01362 -1.33762,-0.27083 -2.68594,0.15298 -1.34834,0.42382 -2.10352,1.68074 -0.94089,1.56602 -0.52363,3.55541 0.41724,1.98939 1.65307,3.57318 1.23582,1.58381 2.74,2.48755 1.23633,0.7428 2.57394,1.01363 1.3376,0.27085 2.68594,-0.15298 1.34833,-0.42381 2.10352,-1.68074 0.95326,-1.58662 0.52983,-3.5657 -0.42345,-1.97909 -1.64896,-3.55671 -1.22552,-1.57762 -2.75031,-2.49374 z m -14.18638,1.06749 q -1.64844,-0.99041 -3.38412,-0.8554 -1.73568,0.135 -2.68895,1.72162 -0.94088,1.56601 -0.60817,3.60276 0.3327,2.03674 1.50662,3.72358 1.17392,1.68682 2.69872,2.60295 1.64844,0.9904 3.39442,0.86159 1.74598,-0.12882 2.69924,-1.71544 0.94088,-1.566 0.60818,-3.60275 -0.33271,-2.03674 -1.51693,-3.72977 -1.18421,-1.69302 -2.70901,-2.60914 z m 5.43408,-7.78426 q 1.46084,-2.43144 1.14788,-6.46142 -0.31295,-4.03001 -2.04844,-7.65272 -1.73549,-3.6227 -4.10512,-5.04641 -0.94785,-0.56949 -1.78677,-0.59679 -0.83892,-0.0273 -1.52767,0.44227 -0.68875,0.46955 -1.21062,1.08143 -0.52187,0.61189 -1.05421,1.49793 -0.84185,1.40117 -1.39402,4.42061 -0.55218,3.01945 -1.33212,4.31759 -0.81708,1.35995 -3.3001,3.41563 -2.48301,2.05566 -3.39913,3.58046 -2.26555,3.77079 0.74283,5.57827 1.77207,1.06469 4.63922,1.21688 2.86715,0.1522 5.69355,-0.49129 2.8264,-0.64348 5.32965,-2.05603 2.50325,-1.41253 3.60507,-3.24641 z m 7.30656,-2.3125 q -0.75518,1.25692 -0.49629,2.64639 0.25889,1.38945 1.12605,2.44329 0.86717,1.05384 2.10349,1.79665 1.5248,0.91612 3.49312,1.25741 1.96832,0.34128 3.91451,-0.21409 1.94618,-0.55538 2.89945,-2.142 0.75518,-1.25693 0.49629,-2.64638 -0.25888,-1.38947 -1.12606,-2.4433 -0.86717,-1.05383 -2.10349,-1.79664 -1.50419,-0.90374 -3.48282,-1.25121 -1.97861,-0.3475 -3.93098,0.21818 -1.95238,0.56568 -2.89327,2.1317 z m 7.49114,-7.614 q 0.95327,-1.58662 0.24721,-3.18865 -0.70606,-1.60205 -2.35449,-2.59245 -1.5248,-0.91613 -3.56532,-1.16059 -2.04052,-0.24445 -3.99501,0.41812 -1.9545,0.66255 -2.89538,2.22856 -0.95327,1.58662 -0.25751,3.18247 0.69575,1.59585 2.34419,2.58626 1.5248,0.91612 3.57562,1.16676 2.05083,0.25064 4.00532,-0.41191 1.95449,-0.66257 2.89537,-2.22857 z" />
    <path
       d="m 572.56412,424.75249 q -0.3588,-1.39697 -1.12111,-2.52898 -0.76231,-1.13201 -2.01996,-1.77692 -1.25767,-0.64491 -2.67791,-0.28013 -1.7695,0.45448 -2.86919,2.16401 -1.09967,1.70952 -1.33171,3.70497 -0.23205,1.99546 0.20449,3.69509 0.3588,1.39697 1.1211,2.52898 0.76229,1.13202 2.01995,1.77692 1.25767,0.64491 2.67792,0.28013 1.79277,-0.46046 2.88082,-2.16699 1.08804,-1.70653 1.32307,-3.69035 0.23504,-1.98381 -0.20747,-3.70673 z m -10.85104,-9.20043 q -0.4784,-1.86262 -1.80911,-2.98515 -1.33069,-1.12253 -3.12347,-0.66206 -1.76948,0.45449 -2.96262,2.13837 -1.19313,1.68388 -1.54159,3.70924 -0.34845,2.02536 0.0941,3.74828 0.4784,1.86263 1.81209,2.99679 1.33368,1.13416 3.12646,0.67369 1.76948,-0.45447 2.96262,-2.13836 1.19313,-1.68388 1.53859,-3.72088 0.34548,-2.03699 -0.097,-3.75992 z m 9.33486,-1.72747 q 2.74737,-0.70564 5.35405,-3.79496 2.60671,-3.08933 3.91452,-6.88745 1.30779,-3.7981 0.62009,-6.47562 -0.27508,-1.07101 -0.85327,-1.67947 -0.57819,-0.60846 -1.39832,-0.7577 -0.82011,-0.14921 -1.62133,-0.0799 -0.80121,0.0693 -1.80238,0.32643 -1.58324,0.40664 -4.09642,2.16898 -2.5132,1.76232 -3.98001,2.13906 -1.53667,0.39468 -4.74805,0.11507 -3.21137,-0.27962 -4.9343,0.1629 -4.26074,1.09433 -3.38766,4.49362 0.51427,2.00232 2.449,4.12377 1.93472,2.12146 4.39908,3.64773 2.46438,1.52627 5.23861,2.27804 2.77422,0.75177 4.84639,0.21955 z m 6.82636,3.48344 q -1.42025,0.36478 -2.21148,1.53592 -0.79121,1.17115 -0.91366,2.5304 -0.12246,1.35925 0.23635,2.75623 0.44251,1.72291 1.60445,3.34793 1.16194,1.62501 2.93768,2.59601 1.77574,0.97099 3.56851,0.51053 1.42026,-0.36477 2.21147,-1.53592 0.79123,-1.17116 0.91366,-2.5304 0.12245,-1.35926 -0.23635,-2.75622 -0.43654,-1.69963 -1.60147,-3.33629 -1.1649,-1.63666 -2.95228,-2.60466 -1.78738,-0.968 -3.55688,-0.51353 z m 10.68007,-0.16195 q 1.79278,-0.46046 2.41484,-2.09693 0.62207,-1.63648 0.14367,-3.49911 -0.44252,-1.72293 -1.72385,-3.32969 -1.28133,-1.60675 -3.13824,-2.50725 -1.85692,-0.90052 -3.62641,-0.44604 -1.79278,0.46046 -2.41783,2.08531 -0.62506,1.62484 -0.14666,3.48747 0.44252,1.72292 1.72684,3.34132 1.28433,1.6184 3.14124,2.51891 1.85692,0.9005 3.6264,0.44601 z"
       id="path4518"
       inkscape:connector-curvature="0"
       style="fill:#00666f;fill-opacity:0.94117647;stroke-width:0.02403846" />
    <path
       style="fill:#00666f;fill-opacity:0.94117647;stroke-width:0.02403846"
       inkscape:connector-curvature="0"
       id="path4520"
       d="m 677.51356,419.75564 q -1.1573,-0.86076 -2.4618,-1.2618 -1.30451,-0.40103 -2.68797,-0.11185 -1.38348,0.28919 -2.25858,1.46577 -1.09031,1.46592 -0.87069,3.4867 0.21962,2.02077 1.29373,3.7184 1.0741,1.69765 2.48214,2.7449 1.1573,0.86077 2.4618,1.26181 1.30449,0.40105 2.68797,0.11186 1.38347,-0.28919 2.25858,-1.46578 1.10465,-1.48519 0.87786,-3.49632 -0.2268,-2.01113 -1.29126,-3.70161 -1.06445,-1.69047 -2.49178,-2.75208 z m -14.2226,-0.33256 q -1.54307,-1.14769 -3.28361,-1.184 -1.74055,-0.0363 -2.8452,1.44889 -1.0903,1.46591 -0.95946,3.5255 0.13082,2.05959 1.13319,3.85367 1.00238,1.79408 2.42972,2.8557 1.54306,1.14768 3.29325,1.19117 1.75018,0.0435 2.85483,-1.44172 1.0903,-1.4659 0.95948,-3.5255 -0.13084,-2.05958 -1.14286,-3.86084 -1.01201,-1.80126 -2.43934,-2.86287 z m 6.17314,-7.21223 q 1.69283,-2.27602 1.77763,-6.31725 0.0848,-4.04125 -1.28606,-7.81705 -1.37088,-3.77579 -3.58903,-5.42559 -0.88727,-0.65992 -1.71944,-0.76958 -0.83217,-0.10966 -1.56376,0.28991 -0.73158,0.39956 -1.31108,0.95717 -0.5795,0.55761 -1.19639,1.38701 -0.97553,1.3116 -1.82192,4.26212 -0.84638,2.95053 -1.75018,4.16569 -0.94685,1.27302 -3.61996,3.07459 -2.6731,1.80157 -3.7347,3.22889 -2.62534,3.52976 0.19075,5.62428 1.65879,1.23377 4.49708,1.66714 2.8383,0.43337 5.71427,0.0709 2.87598,-0.36246 5.50599,-1.52203 2.63,-1.15956 3.9068,-2.87621 z m 7.49853,-1.58288 q -0.87511,1.17658 -0.7541,2.58477 0.12103,1.40817 0.88037,2.54217 0.75934,1.134 1.91664,1.99477 1.42733,1.0616 3.35256,1.59477 1.92522,0.53317 3.91659,0.17185 1.99136,-0.36134 3.096,-1.84653 0.87512,-1.17659 0.7541,-2.58477 -0.12101,-1.40819 -0.88036,-2.54217 -0.75935,-1.13399 -1.91665,-1.99476 -1.40804,-1.04726 -3.34291,-1.5876 -1.93486,-0.54036 -3.93339,-0.16939 -1.99854,0.37097 -3.08885,1.83689 z m 8.20348,-6.84054 q 1.10466,-1.4852 0.55954,-3.14889 -0.54511,-1.66371 -2.08818,-2.8114 -1.42733,-1.06161 -3.43393,-1.50552 -2.0066,-0.4439 -4.01676,0.0233 -2.01017,0.46717 -3.10047,1.93308 -1.10466,1.4852 -0.56918,3.14172 0.53547,1.65653 2.07853,2.80422 1.42734,1.06162 3.44358,1.51268 2.01624,0.45108 4.02641,-0.0161 2.01017,-0.46719 3.10046,-1.93309 z" />
    <path
       d="m 620.18052,478.62516 q -0.25437,-1.4197 -0.93076,-2.60505 -0.67639,-1.18535 -1.88283,-1.92162 -1.20646,-0.73627 -2.64982,-0.47767 -1.79829,0.3222 -3.02155,1.9456 -1.22325,1.62339 -1.60241,3.59618 -0.37918,1.9728 -0.0697,3.70009 0.25437,1.41971 0.93075,2.60506 0.67637,1.18535 1.88283,1.92162 1.20645,0.73627 2.64982,0.47766 1.82194,-0.32643 3.03337,-1.94771 1.21142,-1.62128 1.59272,-3.58224 0.3813,-1.96096 0.0676,-3.71192 z m -10.13995,-9.9787 q -0.33916,-1.89293 -1.58308,-3.11092 -1.24391,-1.21798 -3.06587,-0.89154 -1.79829,0.3222 -3.11283,1.91311 -1.31456,1.5909 -1.81204,3.58489 -0.49748,1.99399 -0.18376,3.74496 0.33916,1.89294 1.5852,3.12275 1.24603,1.22981 3.06799,0.90337 1.79827,-0.3222 3.11284,-1.9131 1.31454,-1.59091 1.8099,-3.59674 0.49537,-2.00581 0.18165,-3.75678 z m 9.43716,-1.03147 q 2.79208,-0.50026 5.62037,-3.38807 2.82831,-2.88782 4.41378,-6.57866 1.58547,-3.69083 1.09793,-6.41193 -0.19502,-1.08843 -0.72656,-1.73804 -0.53155,-0.64961 -1.33837,-0.85916 -0.80682,-0.20956 -1.61096,-0.19979 -0.80415,0.01 -1.82161,0.19206 -1.609,0.28828 -4.24579,1.85967 -2.6368,1.57139 -4.12748,1.83847 -1.56167,0.27981 -4.74353,-0.23684 -3.18185,-0.51666 -4.93281,-0.20294 -4.33009,0.77582 -3.71113,4.23042 0.36459,2.03491 2.13691,4.29381 1.77231,2.2589 4.11689,3.96346 2.34458,1.70458 5.05553,2.65971 2.71094,0.95514 4.81683,0.57783 z m 6.54966,3.97938 q -1.44336,0.2586 -2.31914,1.36794 -0.87576,1.10934 -1.09853,2.4558 -0.22277,1.34645 0.0316,2.76615 0.31372,1.75096 1.35214,3.45755 1.03841,1.7066 2.73737,2.80643 1.69896,1.09981 3.52091,0.77338 1.44337,-0.25861 2.31914,-1.36795 0.87578,-1.10934 1.09853,-2.45579 0.22276,-1.34645 -0.0316,-2.76616 -0.30948,-1.72729 -1.35001,-3.44572 -1.04051,-1.71843 -2.7513,-2.81613 -1.7108,-1.0977 -3.50909,-0.7755 z m 10.66274,0.62937 q 1.82195,-0.32644 2.56349,-1.91236 0.74155,-1.58593 0.40239,-3.47886 -0.31372,-1.75097 -1.47255,-3.4482 -1.15883,-1.69723 -2.94396,-2.73276 -1.78513,-1.03555 -3.58342,-0.71335 -1.82196,0.32644 -2.56561,1.90053 -0.74367,1.5741 -0.40451,3.46704 0.31372,1.75097 1.47467,3.46002 1.16096,1.70906 2.94608,2.7446 1.78514,1.03553 3.58342,0.71334 z"
       id="path4522"
       inkscape:connector-curvature="0"
       style="fill:#00666f;fill-opacity:0.94117647;stroke-width:0.02403846" />
    <path
       style="fill:#00666f;fill-opacity:0.94117647;stroke-width:0.02403846"
       inkscape:connector-curvature="0"
       id="path4524"
       d="m 712.67601,495.87016 q -0.802,-1.19877 -1.89674,-2.01369 -1.09474,-0.81493 -2.49513,-1.006 -1.40041,-0.19105 -2.61915,0.62432 -1.51844,1.01588 -1.98857,2.99345 -0.47013,1.97755 -0.0269,3.93694 0.44322,1.9594 1.41899,3.41789 0.80201,1.19877 1.89674,2.0137 1.09472,0.81493 2.49513,1.00599 1.40039,0.19106 2.61914,-0.62432 1.53841,-1.02924 1.99856,-3.00011 0.46014,-1.97088 0.0236,-3.92029 -0.43654,-1.94941 -1.42568,-3.42788 z m -13.28912,-5.07862 q -1.06934,-1.59835 -2.69712,-2.21573 -1.62777,-0.61739 -3.16619,0.41186 -1.51843,1.01587 -2.08523,3.00026 -0.5668,1.98438 -0.22347,4.01061 0.34334,2.02623 1.33248,3.50471 1.06934,1.59836 2.70381,2.22572 1.63445,0.62737 3.17287,-0.40188 1.51842,-1.01586 2.08523,-3.00025 0.56678,-1.98438 0.21677,-4.0206 -0.35,-2.03622 -1.33915,-3.5147 z m 8.23279,-4.72706 q 2.35758,-1.57728 3.79149,-5.35652 1.43392,-3.77924 1.40736,-7.79612 -0.0266,-4.01686 -1.56375,-6.3145 -0.61487,-0.91905 -1.3622,-1.30119 -0.74733,-0.38214 -1.57051,-0.25078 -0.82317,0.13135 -1.556,0.46256 -0.73284,0.33122 -1.59196,0.90599 -1.3586,0.90895 -3.14463,3.40535 -1.78604,2.4964 -3.04474,3.33851 -1.31864,0.88221 -4.44086,1.68402 -3.12221,0.80181 -4.60068,1.79095 -3.65624,2.44612 -1.70469,5.36311 1.14954,1.71824 3.67858,3.07753 2.52904,1.35929 5.36023,1.98137 2.83119,0.62208 5.6977,0.41072 2.8665,-0.21136 4.64466,-1.401 z m 7.59547,1.02099 q -1.21874,0.81537 -1.57654,2.18271 -0.35778,1.36733 -0.0223,2.6902 0.33551,1.32288 1.13752,2.52165 0.98913,1.47847 2.62445,2.62586 1.63531,1.1474 3.63263,1.47417 1.99733,0.32675 3.53574,-0.70249 1.21875,-0.81537 1.57654,-2.18271 0.35779,-1.36734 0.0223,-2.6902 -0.33552,-1.32287 -1.13752,-2.52163 -0.97577,-1.45849 -2.61777,-2.61588 -1.64198,-1.1574 -3.64929,-1.47748 -2.00732,-0.32008 -3.52576,0.6958 z m 10.02124,-3.69658 q 1.53843,-1.02925 1.58224,-2.77942 0.0438,-1.75018 -1.02553,-3.34854 -0.98914,-1.47848 -2.73103,-2.56904 -1.74189,-1.09055 -3.7924,-1.32388 -2.05051,-0.23334 -3.56894,0.78253 -1.53842,1.02925 -1.58891,2.76944 -0.0505,1.74019 1.01884,3.33855 0.98915,1.47847 2.73772,2.57901 1.74857,1.10055 3.79908,1.33389 2.05051,0.23332 3.56893,-0.78254 z" />
    <path
       d="m 642.3033,549.64591 q 0.26481,-1.41779 0.052,-2.76584 -0.21286,-1.34806 -1.08044,-2.46381 -0.86759,-1.11576 -2.30901,-1.38498 -1.79587,-0.33542 -3.5147,0.74967 -1.71882,1.08508 -2.77195,2.7958 -1.05315,1.71073 -1.37533,3.4357 -0.26481,1.41779 -0.052,2.76584 0.21284,1.34805 1.08043,2.46381 0.86759,1.11576 2.30901,1.38498 1.8195,0.33983 3.52651,-0.74745 1.707,-1.0873 2.75795,-2.78621 1.05094,-1.6989 1.37753,-3.44751 z m -5.94971,-12.92261 q 0.35308,-1.89039 -0.37898,-3.46992 -0.73206,-1.57952 -2.55156,-1.91936 -1.79587,-0.33542 -3.58857,0.68696 -1.7927,1.02237 -2.964,2.71102 -1.17129,1.68866 -1.49788,3.43727 -0.35308,1.89039 0.37678,3.48174 0.72985,1.59133 2.54935,1.93116 1.79586,0.33542 3.58857,-0.68694 1.79269,-1.02239 2.96619,-2.72286 1.17351,-1.70046 1.5001,-3.44907 z m 9.19099,2.37691 q 2.78832,0.52078 6.45591,-1.17848 3.66761,-1.69927 6.45724,-4.5896 2.78961,-2.89032 3.29716,-5.60776 0.20301,-1.08697 -0.0641,-1.8827 -0.26709,-0.79574 -0.94745,-1.2774 -0.68034,-0.48166 -1.43584,-0.75726 -0.75551,-0.27561 -1.7716,-0.46539 -1.60683,-0.30011 -4.6292,0.23582 -3.02237,0.53594 -4.51105,0.25789 -1.55957,-0.29129 -4.35235,-1.90112 -2.79277,-1.60982 -4.54137,-1.93642 -4.32426,-0.80766 -4.96863,2.64229 -0.37955,2.03217 0.47809,4.77227 0.85765,2.7401 2.44677,5.16442 1.58912,2.42432 3.78624,4.27748 2.19711,1.85316 4.30016,2.24596 z m 4.71629,6.0407 q -1.44141,-0.26922 -2.65326,0.45815 -1.21182,0.72738 -1.89692,1.90772 -0.68509,1.18034 -0.9499,2.59813 -0.3266,1.7486 0.0403,3.71232 0.36686,1.96371 1.56632,3.59386 1.19946,1.63015 3.01896,1.96998 1.44142,0.26922 2.65326,-0.45815 1.21184,-0.72737 1.89692,-1.90771 0.68508,-1.18035 0.94989,-2.59814 0.32218,-1.72497 -0.0425,-3.7005 -0.36463,-1.97553 -1.5759,-3.60788 -1.21128,-1.63236 -3.00716,-1.96778 z m 9.74909,4.36411 q 1.8195,0.33984 3.07455,-0.88076 1.25506,-1.22061 1.60813,-3.111 0.3266,-1.74861 -0.15619,-3.74621 -0.4828,-1.9976 -1.78561,-3.59813 -1.30281,-1.60054 -3.09867,-1.93597 -1.81951,-0.33983 -3.07235,0.86896 -1.25285,1.2088 -1.60593,3.09919 -0.32659,1.74861 0.154,3.75801 0.48059,2.00942 1.78339,3.60996 1.30282,1.60053 3.09868,1.93595 z"
       id="path4526"
       inkscape:connector-curvature="0"
       style="fill:#00666f;fill-opacity:0.94117647;stroke-width:0.02403846" />
    <path
       style="fill:#00666f;fill-opacity:0.94117647;stroke-width:0.02403846"
       inkscape:connector-curvature="0"
       id="path4528"
       d="m 731.85166,582.34498 q -0.31754,-1.40692 -1.0462,-2.56087 -0.72867,-1.15396 -1.9668,-1.8356 -1.23814,-0.68164 -2.66851,-0.35882 -1.7821,0.40221 -2.93162,2.07864 -1.14951,1.67641 -1.44017,3.66417 -0.29067,1.98777 0.0957,3.69951 0.31753,1.40692 1.04619,2.56088 0.72865,1.15395 1.96679,1.83559 1.23814,0.68165 2.66851,0.35882 1.80555,-0.4075 2.94334,-2.08127 1.13779,-1.67378 1.43111,-3.64981 0.29332,-1.97604 -0.0983,-3.71124 z m -10.57559,-9.51577 q -0.42338,-1.8759 -1.72047,-3.0371 -1.29708,-1.1612 -3.10263,-0.7537 -1.7821,0.40221 -3.02427,2.05026 -1.24217,1.64803 -1.65009,3.66226 -0.4079,2.01422 -0.0163,3.74942 0.42338,1.8759 1.72311,3.04883 1.29973,1.17291 3.10528,0.76541 1.78209,-0.40221 3.02427,-2.05024 1.24216,-1.64805 1.64743,-3.674 0.40527,-2.02594 0.0136,-3.76114 z m 9.38166,-1.45202 q 2.76694,-0.62448 5.46341,-3.63575 2.69649,-3.01128 4.11551,-6.76926 1.419,-3.75797 0.8104,-6.45457 -0.24344,-1.07864 -0.80348,-1.70386 -0.56003,-0.62521 -1.37541,-0.79851 -0.81537,-0.17331 -1.61828,-0.12763 -0.80291,0.0457 -1.81121,0.27324 -1.59451,0.35987 -4.15847,2.04748 -2.56397,1.68761 -4.04124,2.02102 -1.54761,0.34928 -4.74938,-0.0247 -3.20175,-0.37401 -4.93695,0.0176 -4.2911,0.96847 -3.51844,4.39197 0.45513,2.01659 2.32658,4.19406 1.87145,2.17748 4.28983,3.77561 2.41839,1.59814 5.1693,2.43122 2.7509,0.83308 4.83783,0.36207 z m 6.72088,3.68283 q -1.43036,0.32282 -2.25571,1.47018 -0.82533,1.14735 -0.98773,2.50241 -0.16241,1.35506 0.15513,2.76199 0.39162,1.73519 1.50523,3.3937 1.11361,1.6585 2.86001,2.68134 1.7464,1.02282 3.55194,0.61532 1.43037,-0.32282 2.25572,-1.47018 0.82535,-1.14736 0.98773,-2.50241 0.16239,-1.35506 -0.15514,-2.76198 -0.38633,-1.71175 -1.50259,-3.38198 -1.11624,-1.67023 -2.87435,-2.69041 -1.75813,-1.02019 -3.54024,-0.61798 z m 10.68021,0.15243 q 1.80556,-0.4075 2.47551,-2.02496 0.66997,-1.61747 0.24659,-3.49337 -0.39162,-1.73521 -1.62511,-3.37898 -1.2335,-1.64376 -3.06311,-2.59852 -1.82961,-0.95477 -3.6117,-0.55256 -1.80556,0.4075 -2.47816,2.01325 -0.67261,1.60574 -0.24923,3.48164 0.39163,1.7352 1.62777,3.39069 1.23615,1.65549 3.06574,2.61026 1.82962,0.95475 3.6117,0.55255 z" />
    <path
       d="m 626.29158,617.68415 q 0.385,-1.38997 0.28813,-2.75129 -0.0969,-1.36131 -0.86592,-2.54713 -0.76906,-1.18582 -2.1822,-1.57724 -1.76064,-0.48767 -3.56591,0.44655 -1.80526,0.93422 -3.00074,2.54869 -1.1955,1.61446 -1.66392,3.30558 -0.38501,1.38998 -0.28815,2.75129 0.0969,1.36131 0.86592,2.54713 0.76906,1.18582 2.1822,1.57724 1.7838,0.49409 3.57749,-0.44333 1.79368,-0.93744 2.98597,-2.54032 1.19229,-1.60287 1.66713,-3.31717 z m -4.82356,-13.3838 q 0.51334,-1.8533 -0.0811,-3.48962 -0.59438,-1.6363 -2.37819,-2.1304 -1.76063,-0.48767 -3.63415,0.37776 -1.87351,0.86543 -3.18484,2.4478 -1.31132,1.58238 -1.78616,3.29669 -0.51334,1.8533 0.0778,3.50119 0.59118,1.64788 2.37499,2.14198 1.76062,0.48766 3.63414,-0.37776 1.87351,-0.86543 3.18804,-2.45939 1.31454,-1.59395 1.78938,-3.30825 z m 8.95423,3.15368 q 2.73361,0.75718 6.533,-0.62243 3.79942,-1.37961 6.82585,-4.02096 3.02641,-2.64134 3.76434,-5.30546 0.29517,-1.06565 0.0971,-1.8813 -0.19811,-0.81565 -0.83481,-1.35369 -0.63669,-0.53804 -1.36588,-0.8772 -0.72919,-0.33917 -1.72534,-0.61509 -1.57531,-0.43634 -4.63242,-0.16066 -3.05712,0.27568 -4.51658,-0.12858 -1.52897,-0.4235 -4.17396,-2.26612 -2.64497,-1.84261 -4.35927,-2.31745 -4.23941,-1.17426 -5.17626,2.208 -0.55184,1.99229 0.0685,4.79567 0.62033,2.80337 1.99646,5.35462 1.37611,2.55126 3.40682,4.58541 2.0307,2.03415 4.09249,2.60524 z m 4.18278,6.42167 q -1.41313,-0.39142 -2.6827,0.22972 -1.26956,0.62115 -2.05302,1.73862 -0.78346,1.11748 -1.16847,2.50745 -0.47484,1.71429 -0.27714,3.70218 0.19769,1.98788 1.25344,3.71458 1.05577,1.72668 2.83956,2.22077 1.41314,0.39142 2.68271,-0.22972 1.26957,-0.62114 2.05302,-1.73862 0.78345,-1.11748 1.16846,-2.50745 0.46842,-1.69113 0.27393,-3.6906 -0.19447,-1.99946 -1.2618,-3.72935 -1.06735,-1.72991 -2.82799,-2.21758 z m 9.34046,5.18132 q 1.7838,0.49409 3.13857,-0.61479 1.35478,-1.10889 1.86812,-2.96219 0.47484,-1.7143 0.16454,-3.74585 -0.31031,-2.03155 -1.47157,-3.73756 -1.16126,-1.70603 -2.92189,-2.1937 -1.7838,-0.4941 -3.13537,0.60321 -1.35157,1.0973 -1.86491,2.9506 -0.47484,1.7143 -0.16773,3.75743 0.3071,2.04313 1.46835,3.74916 1.16127,1.70602 2.92189,2.19369 z"
       id="path4530"
       inkscape:connector-curvature="0"
       style="fill:#00666f;fill-opacity:0.94117647;stroke-width:0.02403846" />
    <path
       style="fill:#00666f;fill-opacity:0.94117647;stroke-width:0.02403846"
       inkscape:connector-curvature="0"
       id="path4532"
       d="m 690.40352,659.41738 q -0.27106,-1.41661 -0.96135,-2.59392 -0.6903,-1.17731 -1.90532,-1.89933 -1.21504,-0.72202 -2.65526,-0.44645 -1.79437,0.34335 -2.99844,1.98103 -1.20406,1.63767 -1.55998,3.61479 -0.35593,1.97712 -0.0262,3.70066 0.27106,1.41661 0.96135,2.59392 0.69027,1.17731 1.90532,1.89933 1.21503,0.72202 2.65525,0.44644 1.81798,-0.34786 3.01024,-1.98328 1.19226,-1.63542 1.55045,-3.60073 0.35819,-1.96532 0.0239,-3.71246 z m -10.25669,-9.85867 q -0.36141,-1.88882 -1.61958,-3.09207 -1.25816,-1.20326 -3.07615,-0.8554 -1.79437,0.34334 -3.09011,1.94961 -1.29573,1.60626 -1.76972,3.60597 -0.47397,1.99971 -0.13966,3.74686 0.36141,1.88882 1.62184,3.10388 1.26042,1.21505 3.0784,0.8672 1.79436,-0.34334 3.09011,-1.94961 1.29572,-1.60627 1.76745,-3.61778 0.47172,-2.01151 0.13742,-3.75866 z m 9.42437,-1.14247 q 2.78599,-0.53308 5.5801,-3.45399 2.79413,-2.9209 4.33606,-6.63014 1.54191,-3.70923 1.02238,-6.42441 -0.20781,-1.08606 -0.74696,-1.72937 -0.53916,-0.64331 -1.34839,-0.84335 -0.80923,-0.20004 -1.6132,-0.18082 -0.80398,0.0192 -1.81922,0.21349 -1.6055,0.3072 -4.22361,1.90951 -2.61812,1.60231 -4.10556,1.88692 -1.55827,0.29817 -4.74599,-0.181 -3.18771,-0.47917 -4.93485,-0.14487 -4.32066,0.82673 -3.66109,4.27381 0.38852,2.03047 2.18729,4.26835 1.79878,2.23789 4.16326,3.91474 2.36448,1.67687 5.08648,2.60003 2.722,0.92317 4.8233,0.5211 z m 6.59604,3.90202 q -1.44022,0.27557 -2.30288,1.39514 -0.86265,1.11957 -1.06956,2.46855 -0.2069,1.34899 0.0642,2.7656 0.33431,1.74714 1.39273,3.44139 1.05843,1.69426 2.77022,2.77402 1.71179,1.07974 3.52977,0.73189 1.44022,-0.27558 2.30287,-1.39515 0.86267,-1.11957 1.06956,-2.46855 0.2069,-1.34898 -0.0642,-2.76559 -0.32979,-1.72353 -1.39047,-3.42959 -1.06067,-1.70607 -2.78426,-2.78356 -1.7236,-1.0775 -3.51797,-0.73415 z m 10.6694,0.50383 q 1.81799,-0.34786 2.54082,-1.94239 0.72283,-1.59455 0.36142,-3.48336 -0.33431,-1.74715 -1.51303,-3.43063 -1.17874,-1.68347 -2.97593,-2.69792 -1.79719,-1.01447 -3.59156,-0.67113 -1.81799,0.34786 -2.54307,1.9306 -0.72509,1.58274 -0.36368,3.47155 0.33431,1.74716 1.5153,3.44243 1.18099,1.69528 2.97817,2.70974 1.79721,1.01445 3.59156,0.67111 z" />
    <path
       d="m 573.74628,674.44732 q 0.86528,-1.15393 1.27141,-2.45686 0.40612,-1.30293 0.12235,-2.68751 -0.28379,-1.38459 -1.45694,-2.26429 -1.46165,-1.09602 -3.48327,-0.88429 -2.02161,0.21172 -3.72342,1.2792 -1.70183,1.06746 -2.75458,2.47139 -0.86528,1.15393 -1.27142,2.45685 -0.40614,1.30292 -0.12235,2.68752 0.28378,1.38458 1.45694,2.26429 1.48087,1.11044 3.49287,0.8915 2.012,-0.21894 3.70662,-1.27679 1.69462,-1.05784 2.76179,-2.48101 z m 0.38811,-14.2212 q 1.15371,-1.53857 1.19682,-3.27896 0.0431,-1.74038 -1.43777,-2.85083 -1.46164,-1.09602 -3.52172,-0.97323 -2.06009,0.12278 -3.85808,1.11814 -1.79798,0.99536 -2.86515,2.41854 -1.15371,1.53857 -1.20403,3.28858 -0.0503,1.74999 1.43056,2.86044 1.46163,1.09601 3.52172,0.97323 2.06008,-0.12279 3.86528,-1.12776 1.80519,-1.00497 2.87237,-2.42815 z m 7.18807,6.20126 q 2.26939,1.70172 6.31026,1.8023 4.04088,0.1006 7.82201,-1.25552 3.78111,-1.35612 5.43957,-3.56782 0.66338,-0.88468 0.77628,-1.71641 0.11291,-0.83174 -0.2838,-1.56488 -0.3967,-0.73314 -0.95203,-1.31481 -0.55535,-0.58168 -1.38233,-1.2018 -1.30779,-0.98065 -4.25498,-1.83855 -2.94719,-0.8579 -4.15881,-1.76645 -1.26932,-0.9518 -3.06044,-3.63193 -1.79111,-2.68012 -3.21428,-3.74729 -3.51947,-2.6391 -5.62498,0.16878 -1.24024,1.65397 -1.68469,4.49054 -0.44445,2.83658 -0.0932,5.71395 0.35123,2.87737 1.50052,5.51189 1.14928,2.63451 2.86093,3.918 z m 1.55358,7.50466 q -1.17315,-0.87969 -2.5818,-0.76418 -1.40864,0.11552 -2.5456,0.87043 -1.13695,0.75491 -2.00223,1.90883 -1.06718,1.42317 -1.60786,3.3463 -0.54068,1.92313 -0.18714,3.91589 0.35355,1.99276 1.83442,3.1032 1.17316,0.8797 2.5818,0.76419 1.40865,-0.11551 2.5456,-0.87043 1.13695,-0.75492 2.00223,-1.90885 1.05275,-1.40393 1.60064,-3.33668 0.54791,-1.93274 0.18475,-3.9327 -0.36317,-1.99997 -1.82481,-3.096 z m 6.80845,8.23014 q 1.48087,1.11045 3.14668,0.57184 1.66582,-0.53862 2.81953,-2.07719 1.06718,-1.42318 1.51892,-3.42802 0.45173,-2.00485 -0.008,-4.01683 -0.45932,-2.01198 -1.92095,-3.108 -1.48088,-1.11044 -3.13948,-0.58144 -1.65861,0.529 -2.81232,2.06757 -1.06718,1.42318 -1.52612,3.43764 -0.45894,2.01446 3.6e-4,4.02644 0.45934,2.01198 1.92097,3.10799 z"
       id="path4534"
       inkscape:connector-curvature="0"
       style="fill:#00666f;fill-opacity:0.94117647;stroke-width:0.02403846" />
    <path
       style="fill:#00666f;fill-opacity:0.94117647;stroke-width:0.02403846"
       inkscape:connector-curvature="0"
       id="path4536"
       d="m 632.30651,726.66564 q -0.2022,-1.42806 -0.83474,-2.63739 -0.63253,-1.20932 -1.8112,-1.98928 -1.17869,-0.77995 -2.63054,-0.57437 -1.80889,0.25613 -3.09078,1.83364 -1.28187,1.57751 -1.73302,3.5351 -0.45117,1.95758 -0.20515,3.69505 0.20221,1.42807 0.83473,2.63739 0.63251,1.20933 1.8112,1.98928 1.17868,0.77996 2.63055,0.57438 1.83268,-0.2595 3.10267,-1.83533 1.26997,-1.57583 1.72282,-3.52151 0.45285,-1.94569 0.20346,-3.70696 z m -9.76774,-10.34332 q -0.26961,-1.90409 -1.46809,-3.1668 -1.19848,-1.26272 -3.03117,-1.00322 -1.80888,0.25613 -3.1808,1.79784 -1.37193,1.5417 -1.9421,3.51614 -0.57016,1.97443 -0.32077,3.73571 0.26961,1.90409 1.46978,3.17871 1.20017,1.2746 3.03285,1.0151 1.80887,-0.25613 3.18081,-1.79782 1.37191,-1.54171 1.9404,-3.52805 0.56848,-1.98633 0.31909,-3.74761 z m 9.46861,-0.6852 q 2.80852,-0.39768 5.74067,-3.17999 2.93216,-2.78231 4.65172,-6.41261 1.71956,-3.6303 1.33199,-6.36742 -0.15502,-1.09485 -0.66243,-1.76349 -0.5074,-0.66864 -1.30601,-0.90759 -0.7986,-0.23896 -1.60256,-0.25865 -0.80397,-0.0197 -1.82742,0.12522 -1.61848,0.22917 -4.31104,1.70295 -2.69257,1.47378 -4.19203,1.6861 -1.57087,0.22243 -4.73168,-0.41039 -3.1608,-0.63283 -4.92207,-0.38344 -4.35559,0.61674 -3.86356,4.09168 0.28984,2.0469 1.97824,4.36918 1.68841,2.32229 3.96899,4.11157 2.28059,1.78928 4.95475,2.84305 2.67415,1.05377 4.79244,0.75383 z m 6.39954,4.21655 q -1.45186,0.20558 -2.36767,1.28211 -0.9158,1.07652 -1.18773,2.41391 -0.27193,1.3374 -0.0697,2.76546 0.24939,1.76127 1.22462,3.50475 0.97522,1.74347 2.63276,2.90478 1.65755,1.16129 3.49023,0.90179 1.45187,-0.20558 2.36768,-1.2821 0.91582,-1.07653 1.18772,-2.41392 0.27192,-1.33739 0.0697,-2.76546 -0.24602,-1.73747 -1.22293,-3.49284 -0.97688,-1.75538 -2.64633,-2.91499 -1.66945,-1.15962 -3.47834,-0.90349 z m 10.63254,1.01941 q 1.83269,-0.2595 2.63181,-1.8172 0.79912,-1.55771 0.52951,-3.4618 -0.24939,-1.76128 -1.34529,-3.49981 -1.09591,-1.73852 -2.84192,-2.83873 -1.74602,-1.10022 -3.55489,-0.84409 -1.83269,0.2595 -2.63349,1.80531 -0.80081,1.54581 -0.5312,3.44989 0.24939,1.76128 1.34699,3.5117 1.09759,1.75043 2.8436,2.85065 1.74602,1.10021 3.55488,0.84408 z" />
    <path
       d="m 515.83514,721.86676 q 0.78105,-1.21253 1.09351,-2.54103 0.31247,-1.32851 -0.069,-2.68941 -0.38151,-1.36091 -1.61423,-2.15497 -1.53587,-0.98934 -3.53734,-0.63441 -2.00143,0.35491 -3.62305,1.54069 -1.62163,1.18575 -2.5719,2.66098 -0.78105,1.21253 -1.09352,2.54103 -0.31248,1.32849 0.069,2.68941 0.3815,1.36091 1.61424,2.15497 1.55608,1.00234 3.54742,0.64092 1.99134,-0.36144 3.60646,-1.53709 1.61512,-1.17564 2.57841,-2.67109 z m -0.62396,-14.2128 q 1.0414,-1.6167 0.96066,-3.35575 -0.0807,-1.73905 -1.63682,-2.7414 -1.53585,-0.98933 -3.582,-0.72038 -2.04614,0.26893 -3.76881,1.3896 -1.72267,1.12068 -2.68596,2.61614 -1.0414,1.6167 -0.96716,3.36585 0.0742,1.74914 1.6303,2.7515 1.53586,0.98931 3.58201,0.72038 2.04613,-0.26895 3.77531,-1.39973 1.72917,-1.13076 2.69247,-2.62621 z m 7.61077,5.67452 q 2.38464,1.53606 6.42242,1.34909 4.03782,-0.18695 7.71296,-1.80847 3.67513,-1.62151 5.17215,-3.94553 0.5988,-0.92959 0.65228,-1.76725 0.0535,-0.83766 -0.39434,-1.54075 -0.4478,-0.70308 -1.04311,-1.24379 -0.59529,-0.54073 -1.46427,-1.10048 -1.3742,-0.88519 -4.37493,-1.53138 -3.00073,-0.6462 -4.27388,-1.4663 -1.33378,-0.85915 -3.31091,-3.40515 -1.97712,-2.54599 -3.47257,-3.50928 -3.6982,-2.38219 -5.59874,0.56827 -1.11951,1.73796 -1.36116,4.59895 -0.24166,2.86101 0.31325,5.70612 0.55491,2.84512 1.8886,5.39126 1.33385,2.54604 3.13225,3.70469 z m 2.0832,7.37521 q -1.23272,-0.79406 -2.62959,-0.5787 -1.39686,0.21539 -2.47727,1.04922 -1.08041,0.83383 -1.86146,2.04636 -0.96329,1.49543 -1.36587,3.45214 -0.40258,1.95671 0.0917,3.91929 0.49434,1.96258 2.05042,2.96492 1.23273,0.79407 2.6296,0.57869 1.39687,-0.21537 2.47726,-1.0492 1.0804,-0.83385 1.86145,-2.04637 0.95027,-1.47524 1.35937,-3.44205 0.40911,-1.9668 -0.0953,-3.93587 -0.50444,-1.9691 -2.04032,-2.95843 z m 7.37636,7.72524 q 1.55608,1.00236 3.17938,0.34667 1.62331,-0.65568 2.66471,-2.27238 0.96329,-1.49546 1.27135,-3.52734 0.30805,-2.0319 -0.29315,-4.00613 -0.6012,-1.97422 -2.13706,-2.96355 -1.55608,-1.00235 -3.17287,-0.35677 -1.61681,0.64559 -2.6582,2.26229 -0.9633,1.49545 -1.27785,3.53743 -0.31456,2.04201 0.28662,4.01623 0.60122,1.97424 2.13707,2.96355 z"
       id="path4538"
       inkscape:connector-curvature="0"
       style="fill:#00666f;fill-opacity:0.94117647;stroke-width:0.02403846" />
    <path
       style="fill:#00666f;fill-opacity:0.94117647;stroke-width:0.02403846"
       inkscape:connector-curvature="0"
       id="path4540"
       d="m 563.96752,777.91987 q -0.2022,-1.42806 -0.83474,-2.63739 -0.63253,-1.20932 -1.8112,-1.98928 -1.17869,-0.77995 -2.63054,-0.57437 -1.80889,0.25613 -3.09078,1.83364 -1.28187,1.57751 -1.73302,3.5351 -0.45117,1.95758 -0.20515,3.69505 0.20221,1.42807 0.83473,2.63739 0.63251,1.20933 1.8112,1.98928 1.17868,0.77996 2.63055,0.57438 1.83268,-0.2595 3.10267,-1.83533 1.26997,-1.57583 1.72282,-3.52151 0.45285,-1.94569 0.20346,-3.70696 z m -9.76774,-10.34332 q -0.26961,-1.90409 -1.46809,-3.1668 -1.19848,-1.26272 -3.03117,-1.00322 -1.80888,0.25613 -3.1808,1.79784 -1.37193,1.5417 -1.9421,3.51614 -0.57016,1.97443 -0.32077,3.73571 0.26961,1.90409 1.46978,3.17871 1.20017,1.2746 3.03285,1.0151 1.80887,-0.25613 3.18081,-1.79782 1.37191,-1.54171 1.9404,-3.52805 0.56848,-1.98633 0.31909,-3.74761 z m 9.46861,-0.6852 q 2.80852,-0.39768 5.74067,-3.17999 2.93216,-2.78231 4.65172,-6.41261 1.71956,-3.6303 1.33199,-6.36742 -0.15502,-1.09485 -0.66243,-1.76349 -0.5074,-0.66864 -1.30601,-0.90759 -0.7986,-0.23896 -1.60256,-0.25865 -0.80397,-0.0197 -1.82742,0.12522 -1.61848,0.22917 -4.31104,1.70295 -2.69257,1.47378 -4.19203,1.6861 -1.57087,0.22243 -4.73168,-0.41039 -3.1608,-0.63283 -4.92207,-0.38344 -4.35559,0.61674 -3.86356,4.09168 0.28984,2.0469 1.97824,4.36918 1.68841,2.32229 3.96899,4.11157 2.28059,1.78928 4.95475,2.84305 2.67415,1.05377 4.79244,0.75383 z m 6.39954,4.21655 q -1.45186,0.20558 -2.36767,1.28211 -0.9158,1.07652 -1.18773,2.41391 -0.27193,1.3374 -0.0697,2.76546 0.24939,1.76127 1.22462,3.50475 0.97522,1.74347 2.63276,2.90478 1.65755,1.16129 3.49023,0.90179 1.45187,-0.20558 2.36768,-1.2821 0.91582,-1.07653 1.18772,-2.41392 0.27192,-1.33739 0.0697,-2.76546 -0.24602,-1.73747 -1.22293,-3.49284 -0.97688,-1.75538 -2.64633,-2.91499 -1.66945,-1.15962 -3.47834,-0.90349 z m 10.63254,1.01941 q 1.83269,-0.2595 2.63181,-1.8172 0.79912,-1.55771 0.52951,-3.4618 -0.24939,-1.76128 -1.34529,-3.49981 -1.09591,-1.73852 -2.84192,-2.83873 -1.74602,-1.10022 -3.55489,-0.84409 -1.83269,0.2595 -2.63349,1.80531 -0.80081,1.54581 -0.5312,3.44989 0.24939,1.76128 1.34699,3.5117 1.09759,1.75043 2.8436,2.85065 1.74602,1.10021 3.55488,0.84408 z" />
    <path
       d="m 462.4347,800.19445 q 0.54201,-1.33659 0.60205,-2.70003 0.06,-1.36343 -0.56782,-2.62969 -0.62786,-1.26626 -1.98672,-1.8173 -1.69303,-0.68655 -3.59361,0.0343 -1.90056,0.72082 -3.27346,2.18739 -1.37292,1.46656 -2.03236,3.09274 -0.54202,1.33659 -0.60206,2.70002 -0.06,1.36343 0.56782,2.62969 0.62785,1.26626 1.98672,1.81731 1.71529,0.69558 3.60473,-0.0298 1.88943,-0.72535 3.25783,-2.18077 1.3684,-1.45542 2.03688,-3.10388 z m -3.25537,-13.84903 q 0.72268,-1.78212 0.32004,-3.47584 -0.40263,-1.69373 -2.11793,-2.38931 -1.69301,-0.68655 -3.65348,-0.0419 -1.96047,0.64464 -3.44477,2.06603 -1.48429,1.4214 -2.15277,3.06986 -0.72269,1.78213 -0.32456,3.48699 0.39811,1.70485 2.11341,2.40044 1.693,0.68654 3.65348,0.0419 1.96047,-0.64466 3.44928,-2.07719 1.48881,-1.43252 2.1573,-3.08099 z m 8.53303,4.16068 q 2.62863,1.06596 6.56128,0.13159 3.93266,-0.93436 7.24228,-3.21085 3.3096,-2.27649 4.34846,-4.83829 0.41555,-1.02472 0.31237,-1.85772 -0.10317,-0.833 -0.67391,-1.44057 -0.57072,-0.60757 -1.25615,-1.02819 -0.68544,-0.42063 -1.64334,-0.80907 -1.5148,-0.61428 -4.58335,-0.69135 -3.06855,-0.0771 -4.47197,-0.64618 -1.47025,-0.59621 -3.88624,-2.73026 -2.41599,-2.13404 -4.06444,-2.80252 -4.0766,-1.65314 -5.3955,1.59923 -0.77688,1.91578 -0.48244,4.77183 0.29444,2.85605 1.36861,5.5484 1.07417,2.69236 2.85796,4.94617 1.78378,2.2538 3.76638,3.05778 z m 3.41801,6.85936 q -1.35886,-0.55105 -2.69134,-0.0797 -1.33246,0.47131 -2.23902,1.49146 -0.90656,1.02016 -1.44857,2.35675 -0.66848,1.64846 -0.70028,3.6459 -0.0318,1.99743 0.81877,3.8339 0.85059,1.83646 2.56587,2.53204 1.35888,0.55105 2.69135,0.0797 1.33248,-0.4713 2.23902,-1.49147 0.90655,-1.02015 1.44856,-2.35675 0.65944,-1.62618 0.69576,-3.63475 0.0363,-2.00857 -0.82538,-3.84955 -0.86172,-1.84098 -2.55474,-2.52753 z m 8.68396,6.21924 q 1.7153,0.69558 3.1884,-0.25046 1.47311,-0.94604 2.1958,-2.72816 0.66848,-1.64847 0.59343,-3.70221 -0.0751,-2.05374 -1.03282,-3.88178 -0.95775,-1.82805 -2.65076,-2.51459 -1.7153,-0.69559 -3.18389,0.23932 -1.4686,0.9349 -2.19128,2.71703 -0.66848,1.64846 -0.59793,3.71333 0.0705,2.06489 1.02829,3.89293 0.95776,1.82804 2.65076,2.51459 z"
       id="path4542"
       inkscape:connector-curvature="0"
       style="fill:#00666f;fill-opacity:0.94117647;stroke-width:0.02403846" />
    <path
       style="fill:#00666f;fill-opacity:0.94117647;stroke-width:0.02403846"
       inkscape:connector-curvature="0"
       id="path4544"
       d="m 544.59502,859.40705 q -0.41017,-1.38276 -1.21378,-2.48583 -0.80362,-1.10307 -2.08424,-1.70107 -1.28063,-0.598 -2.68643,-0.181 -1.7515,0.51955 -2.78727,2.26854 -1.03577,1.74898 -1.19391,3.75164 -0.15817,2.00267 0.34087,3.68502 0.41017,1.38275 1.21377,2.48583 0.8036,1.10307 2.08424,1.70107 1.28062,0.598 2.68643,0.181 1.77453,-0.52638 2.79879,-2.27195 1.02424,-1.74556 1.18582,-3.73671 0.16158,-1.99114 -0.34429,-3.69654 z m -11.18357,-8.79323 q -0.54689,-1.84367 -1.91815,-2.91627 -1.37126,-1.07259 -3.1458,-0.54621 -1.75149,0.51955 -2.88159,2.24637 -1.13011,1.72681 -1.4035,3.76366 -0.27338,2.03685 0.23249,3.74225 0.54689,1.84368 1.92158,2.92779 1.37467,1.08411 3.14921,0.55773 1.75148,-0.51955 2.88159,-2.24636 1.1301,-1.72682 1.40007,-3.77519 0.26998,-2.04836 -0.2359,-3.75377 z m 9.26467,-2.07119 q 2.71943,-0.80666 5.21019,-3.99019 2.49078,-3.18353 3.65736,-7.02737 1.16658,-3.84382 0.38042,-6.49411 -0.31446,-1.06011 -0.91474,-1.6468 -0.60028,-0.58668 -1.42535,-0.70551 -0.82507,-0.11883 -1.62318,-0.02 -0.79811,0.0988 -1.7891,0.3928 -1.56712,0.46485 -4.01348,2.31884 -2.44637,1.85398 -3.89826,2.28466 -1.52103,0.45118 -4.74055,0.29041 -3.21952,-0.16077 -4.92491,0.3451 -4.21741,1.25101 -3.21933,4.61571 0.58791,1.98195 2.59969,4.03048 2.01178,2.04853 4.53085,3.4827 2.51908,1.43418 5.3192,2.08293 2.80011,0.64876 4.85119,0.0403 z m 6.9504,3.22885 q -1.40579,0.417 -2.15321,1.61659 -0.7474,1.19958 -0.81955,2.56242 -0.0722,1.36285 0.33802,2.74561 0.50587,1.70539 1.72705,3.28637 1.22119,1.58097 3.03159,2.4857 1.8104,0.90472 3.58494,0.37833 1.40581,-0.417 2.15321,-1.61658 0.74742,-1.19959 0.81955,-2.56243 0.0721,-1.36284 -0.33803,-2.7456 -0.49903,-1.68235 -1.72363,-3.27484 -1.22459,-1.59251 -3.04651,-2.49381 -1.82193,-0.90131 -3.57343,-0.38176 z m 10.6668,-0.55643 q 1.77454,-0.52638 2.33572,-2.18472 0.56118,-1.65836 0.0143,-3.50203 -0.50588,-1.70541 -1.8457,-3.26373 -1.33982,-1.55831 -3.22874,-2.38959 -1.88891,-0.83129 -3.6404,-0.31174 -1.77455,0.52638 -2.33914,2.17321 -0.5646,1.64683 -0.0177,3.4905 0.50588,1.70541 1.84912,3.27524 1.34325,1.56984 3.23216,2.40113 1.88892,0.83127 3.6404,0.31173 z" />
    <path
       d="m 459.05665,883.36861 q 0.41201,-1.38221 0.34167,-2.74515 -0.0703,-1.36294 -0.81614,-2.56351 -0.74582,-1.20058 -2.15106,-1.61945 -1.7508,-0.52188 -3.57393,0.377 -1.82312,0.89888 -3.04982,2.48975 -1.22672,1.59087 -1.72799,3.27255 -0.41201,1.38221 -0.34168,2.74515 0.0703,1.36294 0.81613,2.56352 0.74582,1.20057 2.15107,1.61944 1.77383,0.52875 3.58544,-0.37356 1.8116,-0.90232 3.03489,-2.48167 1.22328,-1.57935 1.73142,-3.28407 z m -4.56194,-13.47522 q 0.54934,-1.84295 -0.0131,-3.49053 -0.5624,-1.64758 -2.33624,-2.17632 -1.7508,-0.52187 -3.64082,0.3069 -1.89002,0.82877 -3.23192,2.3853 -1.34189,1.55654 -1.85003,3.26126 -0.54935,1.84295 0.01,3.50205 0.55897,1.65909 2.33282,2.18783 1.75078,0.52187 3.64081,-0.30689 1.89001,-0.82878 3.23534,-2.39683 1.34533,-1.56804 1.85348,-3.27277 z m 8.8911,3.3275 q 2.71834,0.81028 6.54389,-0.49506 3.82556,-1.30534 6.90287,-3.88724 3.07729,-2.58189 3.86697,-5.23113 0.31588,-1.05969 0.13369,-1.87905 -0.18219,-0.81935 -0.80829,-1.36969 -0.62609,-0.55034 -1.34852,-0.90364 -0.72245,-0.35331 -1.71304,-0.64858 -1.56651,-0.46694 -4.62841,-0.25087 -3.06191,0.21608 -4.51322,-0.21653 -1.52044,-0.4532 -4.12903,-2.34699 -2.60858,-1.89378 -4.3133,-2.40192 -4.21574,-1.25662 -5.21828,2.10675 -0.59055,1.98117 -0.0249,4.79609 0.56561,2.81493 1.89177,5.3925 1.32616,2.57758 3.31686,4.6509 1.99069,2.07332 4.04097,2.68446 z m 4.05691,6.50193 q -1.40524,-0.41888 -2.68668,0.17742 -1.28141,0.5963 -2.08649,1.6983 -0.80508,1.102 -1.21709,2.48421 -0.50814,1.70472 -0.3492,3.69608 0.15893,1.99136 1.18085,3.73829 1.02193,1.74692 2.79576,2.27566 1.40525,0.41888 2.68667,-0.17742 1.28144,-0.5963 2.0865,-1.6983 0.80507,-1.10201 1.21708,-2.48422 0.50127,-1.68168 0.34577,-3.68456 -0.15548,-2.00287 -1.18892,-3.75322 -1.03345,-1.75037 -2.78425,-2.27224 z m 9.23775,5.36227 q 1.77384,0.52874 3.14996,-0.55354 1.37612,-1.08228 1.92546,-2.92523 0.50815,-1.70473 0.23747,-3.74194 -0.27068,-2.03721 -1.39849,-3.76552 -1.1278,-1.72832 -2.8786,-2.2502 -1.77384,-0.52874 -3.14652,0.54203 -1.37269,1.07077 -1.92204,2.91372 -0.50814,1.70472 -0.24089,3.75344 0.26725,2.04873 1.39505,3.77705 1.12782,1.72832 2.8786,2.25019 z"
       id="path4546"
       inkscape:connector-curvature="0"
       style="fill:#00666f;fill-opacity:0.94117647;stroke-width:0.02403846" />
    <path
       style="fill:#00666f;fill-opacity:0.94117647;stroke-width:0.02403846"
       inkscape:connector-curvature="0"
       id="path4548"
       d="m 533.70905,952.15439 q -0.21811,-1.42572 -0.86408,-2.62792 -0.64597,-1.2022 -1.83325,-1.96898 -1.18731,-0.76677 -2.63679,-0.54502 -1.80592,0.27627 -3.07014,1.86798 -1.26422,1.59169 -1.69353,3.55418 -0.42932,1.96249 -0.16396,3.69711 0.21811,1.42572 0.86407,2.62793 0.64595,1.2022 1.83326,1.96897 1.1873,0.76677 2.63678,0.54503 1.82968,-0.27991 3.08202,-1.86979 1.25234,-1.58988 1.68348,-3.54049 0.43114,-1.95061 0.16214,-3.709 z m -9.88239,-10.23383 q -0.29082,-1.90096 -1.5033,-3.15024 -1.21247,-1.24929 -3.04216,-0.96938 -1.80591,0.27627 -3.16057,1.83317 -1.35466,1.55689 -1.90279,3.53756 -0.54812,1.98067 -0.27912,3.73906 0.29081,1.90096 1.50511,3.16213 1.21429,1.26115 3.04398,0.98124 1.8059,-0.27627 3.16057,-1.83316 1.35465,-1.5569 1.90096,-3.54945 0.54632,-1.99254 0.27732,-3.75093 z m 9.46038,-0.79067 q 2.80391,-0.42895 5.70487,-3.24376 2.90098,-2.81482 4.57998,-6.46406 1.679,-3.64923 1.26095,-6.38187 -0.16721,-1.09305 -0.68204,-1.75599 -0.51482,-0.66294 -1.31604,-0.89298 -0.80121,-0.23005 -1.60534,-0.24078 -0.80414,-0.0107 -1.82592,0.14558 -1.61582,0.2472 -4.29179,1.75089 -2.67598,1.50369 -4.17299,1.7327 -1.56829,0.23992 -4.73595,-0.35764 -3.16766,-0.59756 -4.92604,-0.32856 -4.34845,0.66524 -3.81772,4.13448 0.31263,2.04354 2.0268,4.34687 1.71418,2.30332 4.01457,4.06708 2.30038,1.76376 4.98612,2.78766 2.68572,1.0239 4.80054,0.70038 z m 6.44613,4.14497 q -1.44948,0.22175 -2.35324,1.30841 -0.90375,1.08667 -1.16075,2.42701 -0.25701,1.34034 -0.0389,2.76606 0.269,1.75838 1.26359,3.49088 0.99459,1.7325 2.66498,2.87526 1.67039,1.14276 3.50006,0.86285 1.44949,-0.22175 2.35324,-1.30841 0.90377,-1.08667 1.16075,-2.427 0.257,-1.34034 0.0389,-2.76607 -0.26537,-1.73461 -1.26178,-3.479 -0.99638,-1.74438 -2.67865,-2.88532 -1.68227,-1.14094 -3.48819,-0.86467 z m 10.64324,0.90087 q 1.82969,-0.27991 2.61139,-1.84642 0.78172,-1.56652 0.49091,-3.46748 -0.269,-1.75839 -1.38421,-3.4846 -1.11522,-1.72621 -2.87338,-2.80689 -1.75816,-1.0807 -3.56407,-0.80443 -1.82969,0.27991 -2.61321,1.83455 -0.78354,1.55464 -0.49272,3.4556 0.269,1.75839 1.38603,3.49647 1.11703,1.73809 2.87519,2.81878 1.75817,1.08069 3.56407,0.80442 z" />
  </g>
</svg>
