<svg id="iconfinder_quote-mark_383084" xmlns="http://www.w3.org/2000/svg" width="23.511" height="18" viewBox="0 0 23.511 18">
  <path id="Path_209" data-name="Path 209" d="M13.07,4.712A4.364,4.364,0,0,1,14.5,1.3,5.14,5.14,0,0,1,18.065.01a5.42,5.42,0,0,1,4.261,1.727A6.633,6.633,0,0,1,23.87,6.328a12.208,12.208,0,0,1-.918,5,12.089,12.089,0,0,1-2.2,3.416,11.1,11.1,0,0,1-2.682,2.131,17.112,17.112,0,0,1-2.424,1.139L13.29,14.043a6.03,6.03,0,0,0,2.5-1.874,5.188,5.188,0,0,0,1.176-2.754,3.636,3.636,0,0,1-2.682-1.286A4.776,4.776,0,0,1,13.07,4.712Zm-12.711,0A4.364,4.364,0,0,1,1.792,1.3,5.136,5.136,0,0,1,5.355.01,5.419,5.419,0,0,1,9.616,1.737,6.63,6.63,0,0,1,11.16,6.328a12.208,12.208,0,0,1-.918,5,12.1,12.1,0,0,1-2.2,3.416,11.1,11.1,0,0,1-2.682,2.131A17.075,17.075,0,0,1,2.931,18.01L.58,14.043a6.028,6.028,0,0,0,2.5-1.874A5.183,5.183,0,0,0,4.254,9.414,3.633,3.633,0,0,1,1.572,8.128,4.773,4.773,0,0,1,.359,4.712Z" transform="translate(-0.359 -0.01)" fill="#f4f4f4"/>
</svg>
