<svg xmlns="http://www.w3.org/2000/svg" width="30" height="30" viewBox="0 0 30 30">
  <g id="Group_675" data-name="Group 675" transform="translate(-209 -2)">
    <g id="Symbol_13_3" data-name="Symbol 13 – 3" transform="translate(-968 -20)">
      <path id="Path_3" data-name="Path 3" d="M9.5,1.689a29.129,29.129,0,0,1,3.8.106,4.9,4.9,0,0,1,1.794.317,3.707,3.707,0,0,1,1.794,1.794A4.9,4.9,0,0,1,17.206,5.7c0,.95.106,1.267.106,3.8a29.129,29.129,0,0,1-.106,3.8,4.9,4.9,0,0,1-.317,1.794,3.707,3.707,0,0,1-1.794,1.794,4.9,4.9,0,0,1-1.794.317c-.95,0-1.267.106-3.8.106a29.129,29.129,0,0,1-3.8-.106,4.9,4.9,0,0,1-1.794-.317,3.707,3.707,0,0,1-1.794-1.794A4.9,4.9,0,0,1,1.794,13.3c0-.95-.106-1.267-.106-3.8a29.129,29.129,0,0,1,.106-3.8,4.9,4.9,0,0,1,.317-1.794A3.791,3.791,0,0,1,2.85,2.85a1.785,1.785,0,0,1,1.056-.739A4.9,4.9,0,0,1,5.7,1.794a29.129,29.129,0,0,1,3.8-.106M9.5,0A31.189,31.189,0,0,0,5.594.106,6.517,6.517,0,0,0,3.272.528,4.132,4.132,0,0,0,1.583,1.583,4.132,4.132,0,0,0,.528,3.272,4.809,4.809,0,0,0,.106,5.594,31.189,31.189,0,0,0,0,9.5a31.189,31.189,0,0,0,.106,3.906,6.517,6.517,0,0,0,.422,2.322,4.132,4.132,0,0,0,1.056,1.689,4.132,4.132,0,0,0,1.689,1.056,6.517,6.517,0,0,0,2.322.422A31.188,31.188,0,0,0,9.5,19a31.188,31.188,0,0,0,3.906-.106,6.517,6.517,0,0,0,2.322-.422,4.429,4.429,0,0,0,2.744-2.744,6.517,6.517,0,0,0,.422-2.322c0-1.056.106-1.372.106-3.906a31.188,31.188,0,0,0-.106-3.906,6.517,6.517,0,0,0-.422-2.322,4.132,4.132,0,0,0-1.056-1.689A4.132,4.132,0,0,0,15.728.528,6.517,6.517,0,0,0,13.406.106,31.189,31.189,0,0,0,9.5,0m0,4.644A4.777,4.777,0,0,0,4.644,9.5,4.856,4.856,0,1,0,9.5,4.644m0,8.022A3.11,3.11,0,0,1,6.333,9.5,3.11,3.11,0,0,1,9.5,6.333,3.11,3.11,0,0,1,12.667,9.5,3.11,3.11,0,0,1,9.5,12.667m5.067-9.394a1.161,1.161,0,1,0,1.161,1.161,1.171,1.171,0,0,0-1.161-1.161" transform="translate(1183 28)" fill-rule="evenodd"/>
    </g>
    <rect id="Rectangle_1643" data-name="Rectangle 1643" width="30" height="30" transform="translate(209 2)" fill="none"/>
  </g>
</svg>
