<svg xmlns="http://www.w3.org/2000/svg" width="61.385" height="46.997" viewBox="0 0 61.385 46.997">
  <path id="Path_209" data-name="Path 209" d="M33.546,12.287a11.394,11.394,0,0,1,3.739-8.92A13.421,13.421,0,0,1,46.588.01q7.1,0,11.126,4.508t4.03,11.989a31.873,31.873,0,0,1-2.4,13.044,31.563,31.563,0,0,1-5.757,8.92,28.98,28.98,0,0,1-7,5.563,44.678,44.678,0,0,1-6.328,2.973L34.12,36.648a15.743,15.743,0,0,0,6.522-4.893,13.546,13.546,0,0,0,3.071-7.191,9.493,9.493,0,0,1-7-3.359A12.469,12.469,0,0,1,33.546,12.287Zm-33.187,0A11.4,11.4,0,0,1,4.1,3.367,13.409,13.409,0,0,1,13.4.01q7.1,0,11.126,4.508t4.03,11.989a31.873,31.873,0,0,1-2.4,13.044,31.6,31.6,0,0,1-5.755,8.92,28.987,28.987,0,0,1-7,5.563,44.582,44.582,0,0,1-6.328,2.973L.936,36.648a15.738,15.738,0,0,0,6.52-4.893,13.531,13.531,0,0,0,3.071-7.191,9.487,9.487,0,0,1-7-3.359A12.462,12.462,0,0,1,.359,12.287Z" transform="translate(-0.359 -0.01)" fill="#78d3d0"/>
</svg>
