<svg xmlns="http://www.w3.org/2000/svg" width="27" height="27" viewBox="0 0 27 27">
  <path id="path2" d="M43.305,54.6A10.936,10.936,0,0,0,51.75,36.646l4.655-4.655v2.327a1,1,0,1,0,1.995,0V29.531a.5.5,0,0,0-.066-.332h0c-.133-.266-.266-.465-.532-.532h0a.723.723,0,0,0-.332-.066H52.748a1,1,0,0,0,0,1.995h2.327L50.42,35.25A10.977,10.977,0,0,0,35.592,51.408,10.7,10.7,0,0,0,43.305,54.6ZM36.922,37.311a8.964,8.964,0,0,1,6.317-2.66,8.694,8.694,0,0,1,6.317,2.66,9.011,9.011,0,0,1-6.317,15.361,8.694,8.694,0,0,1-6.317-2.66A9.072,9.072,0,0,1,36.922,37.311Z" transform="translate(-31.9 -28.1)" fill="#006766" stroke="#006766" stroke-width="1"/>
</svg>
